<svg width="342" height="336" viewBox="0 0 342 336" fill="none" xmlns="http://www.w3.org/2000/svg">
<rect width="57" height="57" fill="#376981"/>
<rect x="57" y="57" width="57" height="57" fill="#376981" fill-opacity="0.8"/>
<rect x="114" y="114" width="57" height="57" fill="#376981" fill-opacity="0.7"/>
<rect x="171" y="57" width="57" height="57" fill="#376981" fill-opacity="0.7"/>
<rect x="228" y="57" width="57" height="57" fill="#376981" fill-opacity="0.6"/>
<rect x="171" y="171" width="57" height="57" fill="#376981" fill-opacity="0.4"/>
<rect x="228" y="279" width="57" height="57" fill="#376981" fill-opacity="0.2"/>
<rect x="285" y="171" width="57" height="57" fill="#376981" fill-opacity="0.3"/>
<rect y="57" width="57" height="57" fill="#376981"/>
<rect y="114" width="57" height="57" fill="#376981" fill-opacity="0.7"/>
<rect y="171" width="57" height="57" fill="#376981" fill-opacity="0.5"/>
<rect x="57" y="228" width="57" height="57" fill="#376981" fill-opacity="0.4"/>
<rect x="57" width="57" height="57" fill="#376981"/>
<rect x="114" width="57" height="57" fill="#376981"/>
<rect x="171" width="57" height="57" fill="#376981" fill-opacity="0.8"/>
<rect x="228" width="57" height="57" fill="#376981" fill-opacity="0.7"/>
<rect x="285" width="57" height="57" fill="#376981" fill-opacity="0.4"/>
</svg>
