<svg width="400" height="160" viewBox="0 0 400 160" fill="none" xmlns="http://www.w3.org/2000/svg">
<rect x="360" y="80" width="40" height="40" fill="#376981" fill-opacity="0.9"/>
<rect x="360" y="40" width="40" height="40" fill="#376981" fill-opacity="0.5"/>
<rect x="320" y="120" width="40" height="40" fill="#376981" fill-opacity="0.9"/>
<rect x="280" y="120" width="40" height="40" fill="#376981" fill-opacity="0.8"/>
<rect x="320" y="80" width="40" height="40" fill="#376981" fill-opacity="0.8"/>
<rect x="280" y="80" width="40" height="40" fill="#376981" fill-opacity="0.7"/>
<rect x="280" width="40" height="40" fill="#376981" fill-opacity="0.4"/>
<rect x="240" y="40" width="40" height="40" fill="#376981" fill-opacity="0.6"/>
<rect x="160" width="40" height="40" fill="#376981" fill-opacity="0.5"/>
<rect x="120" y="40" width="40" height="40" fill="#376981" fill-opacity="0.5"/>
<rect x="80" width="40" height="40" fill="#376981" fill-opacity="0.3"/>
<rect y="40" width="40" height="40" fill="#376981" fill-opacity="0.3"/>
<rect x="80" y="80" width="40" height="40" fill="#376981" fill-opacity="0.4"/>
<rect x="120" y="80" width="40" height="40" fill="#376981" fill-opacity="0.5"/>
<rect x="200" y="80" width="40" height="40" fill="#376981" fill-opacity="0.6"/>
<rect x="160" y="120" width="40" height="40" fill="#376981" fill-opacity="0.4"/>
<rect x="240" y="120" width="40" height="40" fill="#376981" fill-opacity="0.7"/>
</svg>
