<svg width="120" height="214" viewBox="0 0 120 214" fill="none" xmlns="http://www.w3.org/2000/svg">
<g opacity="0.25">
<path d="M159.998 38.3895L80.0003 92.2697L0.00390542 38.3908C0.00437793 17.6816 35.8612 0.90571 80.001 0.904543C124.141 0.903376 159.997 17.6817 159.998 38.3895Z" fill="#E5EFF6"/>
<path d="M79.9961 92.2748L0 146.249V38.3951L79.9961 92.2748Z" fill="#BAD7EC"/>
<path d="M159.992 146.26C159.992 152.301 157.379 158.341 152.146 162.942C141.792 172.05 109.095 200.717 98.8516 209.825C93.6192 214.425 86.7551 216.726 79.9961 216.726C73.1293 216.726 66.3731 214.425 61.1407 209.825C51.7683 201.675 19.0739 172.818 7.84591 162.942C2.61618 158.244 0 152.206 0 146.26L79.9961 92.3807L159.992 146.26Z" fill="#8FBEE0"/>
<path d="M160 38.3951V146.249L80.0039 92.2748L160 38.3951Z" fill="#BAD7EC"/>
</g>
</svg>
