<svg width="358" height="283" viewBox="0 0 358 283" fill="none" xmlns="http://www.w3.org/2000/svg">
<g opacity="0.25" clip-path="url(#clip0_6573_221143)">
<rect x="306.641" y="169.672" width="51.107" height="56.2527" fill="#F4F8FB"/>
<rect x="306.641" y="225.925" width="51.107" height="56.2527" fill="#F4F8FB"/>
<rect x="306.641" y="113.42" width="51.107" height="56.2527" fill="#F4F8FB" fill-opacity="0.8"/>
<path d="M306.641 57.166H357.748V113.419H306.641V57.166Z" fill="#F4F8FB" fill-opacity="0.6"/>
<rect x="306.641" y="0.914062" width="51.107" height="56.2527" fill="#F4F8FB" fill-opacity="0.3"/>
<rect x="255.531" y="57.166" width="51.107" height="56.2527" fill="#F4F8FB" fill-opacity="0.5"/>
<rect x="255.531" y="225.925" width="51.107" height="56.2527" fill="#F4F8FB"/>
<rect x="255.531" y="169.672" width="51.107" height="56.2527" fill="#F4F8FB" fill-opacity="0.7"/>
<rect x="204.43" y="225.925" width="51.107" height="56.2527" fill="#F4F8FB"/>
<rect x="204.43" y="113.42" width="51.107" height="56.2527" fill="#F4F8FB" fill-opacity="0.7"/>
<rect x="153.32" y="57.166" width="51.107" height="56.2527" fill="#F4F8FB" fill-opacity="0.4"/>
<rect x="153.32" y="225.925" width="51.107" height="56.2527" fill="#F4F8FB" fill-opacity="0.8"/>
<rect x="102.219" y="169.672" width="51.107" height="56.2527" fill="#F4F8FB" fill-opacity="0.6"/>
<rect x="153.32" y="169.672" width="51.107" height="56.2527" fill="#F4F8FB" fill-opacity="0.6"/>
<rect x="51.1094" y="113.42" width="51.107" height="56.2527" fill="#F4F8FB" fill-opacity="0.4"/>
<rect y="0.914062" width="51.107" height="56.2527" fill="#F4F8FB" fill-opacity="0.3"/>
<rect x="51.1094" y="225.925" width="51.107" height="56.2527" fill="#F4F8FB" fill-opacity="0.7"/>
<rect y="225.925" width="51.107" height="56.2527" fill="#F4F8FB" fill-opacity="0.3"/>
</g>
<defs>
<clipPath id="clip0_6573_221143">
<rect width="357.748" height="281.264" fill="white" transform="translate(0 0.914062)"/>
</clipPath>
</defs>
</svg>
