<svg width="208" height="204" viewBox="0 0 208 204" fill="none" xmlns="http://www.w3.org/2000/svg">
<g opacity="0.25" clip-path="url(#clip0_6573_221125)">
<rect width="34.6071" height="34.6071" fill="#F4F8FB"/>
<rect x="34.6094" y="34.6074" width="34.6071" height="34.6071" fill="#F4F8FB" fill-opacity="0.8"/>
<rect x="69.2188" y="69.2139" width="34.6071" height="34.6071" fill="#F4F8FB" fill-opacity="0.7"/>
<rect x="103.82" y="34.6074" width="34.6071" height="34.6071" fill="#F4F8FB" fill-opacity="0.7"/>
<rect x="138.43" y="34.6074" width="34.6071" height="34.6071" fill="#F4F8FB" fill-opacity="0.6"/>
<rect x="103.82" y="103.821" width="34.6071" height="34.6071" fill="#F4F8FB" fill-opacity="0.4"/>
<rect x="138.43" y="169.393" width="34.6071" height="34.6071" fill="#F4F8FB" fill-opacity="0.2"/>
<rect x="173.031" y="103.821" width="34.6071" height="34.6071" fill="#F4F8FB" fill-opacity="0.3"/>
<rect y="34.6074" width="34.6071" height="34.6071" fill="#F4F8FB"/>
<rect y="69.2139" width="34.6071" height="34.6071" fill="#F4F8FB" fill-opacity="0.7"/>
<rect y="103.821" width="34.6071" height="34.6071" fill="#F4F8FB" fill-opacity="0.5"/>
<rect x="34.6094" y="138.429" width="34.6071" height="34.6071" fill="#F4F8FB" fill-opacity="0.4"/>
<rect x="34.6094" width="34.6071" height="34.6071" fill="#F4F8FB"/>
<rect x="69.2188" width="34.6071" height="34.6071" fill="#F4F8FB"/>
<rect x="103.82" width="34.6071" height="34.6071" fill="#F4F8FB" fill-opacity="0.8"/>
<rect x="138.43" width="34.6071" height="34.6071" fill="#F4F8FB" fill-opacity="0.7"/>
<rect x="173.031" width="34.6071" height="34.6071" fill="#F4F8FB" fill-opacity="0.4"/>
</g>
<defs>
<clipPath id="clip0_6573_221125">
<rect width="207.638" height="204" fill="white"/>
</clipPath>
</defs>
</svg>
