<svg width="16" height="13" viewBox="0 0 16 13" fill="none" xmlns="http://www.w3.org/2000/svg">
<path d="M14.3885 0.782278C14.2646 0.749123 14.1343 0.731445 14 0.731445H2C1.86569 0.731445 1.73549 0.749114 1.6116 0.782252L7.46985 6.64055C7.76271 6.93341 8.23733 6.93341 8.53019 6.64055L14.3885 0.782278Z" fill="white"/>
<path d="M0.550861 1.84284C0.517688 1.96679 0.5 2.09706 0.5 2.23145V11.2314C0.5 12.0597 1.17179 12.7314 2 12.7314H14C14.8282 12.7314 15.5 12.0597 15.5 11.2314V2.23145C15.5 2.09709 15.4823 1.96685 15.4492 1.84293L9.59085 7.70121C8.71221 8.57985 7.28784 8.57985 6.40919 7.70121L0.550861 1.84284Z" fill="white"/>
</svg>
