<svg width="197" height="57" viewBox="0 0 197 57" fill="none" xmlns="http://www.w3.org/2000/svg">
<g clip-path="url(#clip0_8064_101753)">
<path d="M145.485 48.8978L142.943 40.0234H144.52L146.465 46.896L148.565 40.0234H150.175L152.014 46.896L154.244 40.0234H155.626L152.733 48.8978H151.115L149.235 42.0259L147.111 48.8978H145.485Z" fill="white"/>
<path d="M160.349 49.1024C159.08 49.1024 158.067 48.6814 157.309 47.8395C156.552 46.9982 156.174 45.8718 156.174 44.4608C156.174 43.0332 156.554 41.9041 157.314 41.0738C158.073 40.2428 159.105 39.8276 160.407 39.8276C161.709 39.8276 162.739 40.2428 163.5 41.0738C164.26 41.9041 164.639 43.028 164.639 44.4441C164.639 45.8937 164.258 47.0323 163.496 47.8601C162.733 48.6879 161.684 49.1024 160.349 49.1024ZM160.374 47.8929C162.079 47.8929 162.932 46.7433 162.932 44.4441C162.932 42.1726 162.09 41.0365 160.407 41.0365C158.729 41.0365 157.89 42.1783 157.89 44.4608C157.89 46.7485 158.718 47.8929 160.374 47.8929Z" fill="white"/>
<path d="M166.682 48.8977V40.0233H168.291V41.6904C168.929 40.4481 169.855 39.8276 171.07 39.8276C171.233 39.8276 171.405 39.8412 171.585 39.8682V41.3718C171.306 41.2791 171.062 41.2328 170.849 41.2328C169.83 41.2328 168.978 41.8378 168.291 43.0467V48.8977H166.682Z" fill="white"/>
<path d="M173.057 48.8978V35.9946H174.666V44.3303L178.426 40.0234H180.158L176.57 44.1668L180.902 48.8978H178.843L174.666 44.3464V48.8978H173.057Z" fill="white"/>
<path d="M136.233 49.7426V50.7069C135.318 50.936 134.506 51.0506 133.798 51.0506C131.679 51.0506 129.983 50.3683 128.711 49.003C127.439 47.6384 126.803 45.8175 126.803 43.5408C126.803 41.2634 127.484 39.3582 128.846 37.8243C130.208 36.291 131.899 35.5244 133.921 35.5244C135.669 35.5244 137.088 36.1436 138.178 37.3834C139.268 38.6224 139.812 40.2394 139.812 42.2328C139.812 43.8073 139.553 45.0335 139.036 45.9102C138.518 46.7875 137.794 47.2258 136.862 47.2258C135.942 47.2258 135.277 46.6729 134.868 45.5671C134.024 46.6729 133.165 47.2258 132.294 47.2258C131.602 47.2258 131.052 46.94 130.644 46.3678C130.235 45.7962 130.031 45.0251 130.031 44.0551C130.031 42.612 130.407 41.4347 131.159 40.5251C131.91 39.6156 132.882 39.1606 134.076 39.1606C134.5 39.1606 135.135 39.2095 135.98 39.3073V43.5163L135.988 44.2759C135.988 45.0444 136.063 45.5671 136.213 45.8451C136.362 46.1226 136.644 46.2616 137.058 46.2616C138.257 46.2616 138.856 45.0579 138.856 42.6499C138.856 40.6835 138.428 39.1644 137.573 38.094C136.718 37.0235 135.503 36.4886 133.928 36.4886C132.158 36.4886 130.689 37.1542 129.52 38.4866C128.351 39.8184 127.767 41.4952 127.767 43.5163C127.767 45.5265 128.306 47.1267 129.385 48.3169C130.464 49.507 131.918 50.1024 133.749 50.1024C134.479 50.1024 135.307 49.9827 136.233 49.7426ZM134.77 40.2638C134.345 40.1653 134.016 40.1164 133.781 40.1164C132.12 40.1164 131.289 41.3915 131.289 43.9411C131.289 45.4062 131.725 46.1393 132.596 46.1393C133.408 46.1393 134.133 45.4937 134.77 44.2025V40.2638Z" fill="white"/>
<path d="M173.997 28.4682C174.561 28.4682 175.077 28.3646 175.55 28.1579C176.022 27.9507 176.427 27.6694 176.767 27.3128C177.106 26.9568 177.367 26.5346 177.549 26.046C177.732 25.5581 177.823 25.0232 177.823 24.4439C177.823 23.8646 177.732 23.3259 177.549 22.8289C177.367 22.3327 177.106 21.9059 176.767 21.5499C176.427 21.194 176.022 20.9127 175.55 20.7048C175.077 20.4982 174.561 20.3945 173.997 20.3945C173.417 20.3945 172.892 20.4982 172.42 20.7048C171.948 20.9127 171.546 21.1985 171.215 21.5622C170.884 21.9265 170.623 22.3571 170.433 22.854C170.242 23.351 170.147 23.8813 170.147 24.4439C170.147 25.04 170.242 25.5865 170.433 26.0834C170.623 26.5803 170.888 27.0025 171.228 27.3501C171.567 27.6984 171.972 27.9713 172.445 28.1702C172.917 28.3684 173.434 28.4682 173.997 28.4682ZM167.34 13.6881C167.34 13.2407 167.472 12.9092 167.737 12.6942C168.002 12.4792 168.375 12.3711 168.855 12.3711C169.153 12.3711 169.427 12.4084 169.675 12.4831C169.924 12.5571 170.089 12.6112 170.172 12.6447V19.7734C170.586 19.2436 171.157 18.7924 171.886 18.4197C172.615 18.0477 173.451 17.861 174.395 17.861C175.305 17.861 176.146 18.0226 176.916 18.3451C177.686 18.6682 178.357 19.1239 178.929 19.7116C179.5 20.2999 179.947 20.9951 180.27 21.7984C180.592 22.6017 180.754 23.4836 180.754 24.4439C180.754 25.3876 180.589 26.2655 180.257 27.0772C179.926 27.8889 179.462 28.5841 178.866 29.164C178.269 29.7433 177.562 30.199 176.742 30.5299C175.923 30.8608 175.024 31.0268 174.047 31.0268C173.07 31.0268 172.172 30.8775 171.352 30.5795C170.532 30.2814 169.824 29.8347 169.228 29.238C168.632 28.642 168.168 27.8966 167.837 27.0025C167.505 26.1085 167.34 25.0567 167.34 23.8479V13.6881ZM156.335 23.8723C156.716 23.8891 157.08 23.8974 157.428 23.8974H158.472C159.382 23.8974 160.119 23.8395 160.682 23.723C161.245 23.6078 161.684 23.4585 161.999 23.2763C162.313 23.0941 162.521 22.8875 162.62 22.6551C162.719 22.4234 162.769 22.1833 162.769 21.9349C162.769 21.306 162.517 20.8342 162.011 20.5188C161.506 20.2047 160.881 20.047 160.136 20.047C159.523 20.047 158.985 20.1551 158.521 20.3701C158.057 20.5851 157.668 20.8709 157.354 21.2268C157.039 21.5834 156.794 21.9928 156.621 22.4562C156.447 22.9203 156.352 23.3922 156.335 23.8723ZM165.055 29.7601C164.922 29.8431 164.715 29.9583 164.434 30.1076C164.152 30.2563 163.8 30.3973 163.378 30.5299C162.955 30.6625 162.467 30.7784 161.912 30.8775C161.357 30.9766 160.749 31.0268 160.086 31.0268C159.159 31.0268 158.294 30.8859 157.49 30.6039C156.687 30.3226 155.983 29.9049 155.379 29.35C154.775 28.7952 154.298 28.1161 153.951 27.3128C153.602 26.5101 153.429 25.5865 153.429 24.543C153.429 23.5492 153.599 22.6429 153.938 21.8235C154.278 21.0035 154.749 20.2999 155.355 19.7116C155.958 19.1239 156.671 18.6682 157.49 18.3451C158.31 18.0226 159.208 17.861 160.185 17.861C161.047 17.861 161.809 17.973 162.471 18.1964C163.133 18.4197 163.692 18.7184 164.148 19.0905C164.603 19.4631 164.947 19.8983 165.178 20.3945C165.411 20.8921 165.527 21.4219 165.527 21.9844C165.527 22.5644 165.418 23.0903 165.203 23.5621C164.988 24.0339 164.607 24.4401 164.061 24.7793C163.514 25.1185 162.777 25.3837 161.85 25.5736C160.922 25.7647 159.747 25.86 158.323 25.86C157.991 25.86 157.681 25.8562 157.391 25.8478C157.101 25.8394 156.791 25.8265 156.459 25.8105C156.592 26.655 157.001 27.3379 157.689 27.8593C158.376 28.3813 159.358 28.642 160.633 28.642C161.063 28.642 161.46 28.6092 161.825 28.5429C162.189 28.4766 162.517 28.3935 162.806 28.2944C163.096 28.1946 163.345 28.0955 163.551 27.9964C163.758 27.8966 163.912 27.8219 164.011 27.7724L165.055 29.7601ZM137.531 30.6792C136.719 28.7746 136.053 27.1602 135.531 25.8349C135.009 24.5102 134.596 23.4127 134.29 22.5431C133.982 21.6742 133.768 21.0035 133.643 20.5316C133.519 20.0592 133.457 19.7238 133.457 19.5249C133.457 19.1773 133.573 18.871 133.805 18.6064C134.037 18.3419 134.393 18.2086 134.873 18.2086C135.237 18.2086 135.523 18.2421 135.73 18.3084C135.937 18.3747 136.074 18.4242 136.14 18.4571C136.339 19.1864 136.562 19.9601 136.81 20.7801C137.059 21.5995 137.315 22.4157 137.581 23.2267C137.845 24.0384 138.107 24.8127 138.363 25.5491C138.62 26.2861 138.848 26.9446 139.046 27.5239C139.228 27.0109 139.423 26.4232 139.63 25.7609C139.837 25.0985 140.052 24.415 140.276 23.7108C140.5 23.0072 140.719 22.2953 140.934 21.5744C141.149 20.8541 141.348 20.1712 141.53 19.5249C141.663 19.0943 141.849 18.7673 142.089 18.544C142.329 18.3206 142.714 18.2086 143.244 18.2086C143.576 18.2086 143.874 18.2543 144.138 18.3451C144.404 18.4371 144.569 18.4989 144.635 18.5317C144.85 19.2771 145.083 20.0592 145.331 20.8792C145.579 21.6986 145.827 22.5058 146.077 23.3014C146.325 24.0963 146.568 24.8585 146.809 25.5865C147.049 26.3151 147.269 26.9613 147.468 27.5239C147.898 26.3814 148.341 25.1314 148.797 23.7732C149.251 22.4157 149.67 21.0575 150.051 19.6994C150.2 19.1864 150.394 18.8092 150.634 18.5691C150.875 18.329 151.243 18.2086 151.74 18.2086C152.187 18.2086 152.551 18.2833 152.833 18.432C153.115 18.5813 153.272 18.6727 153.305 18.7055C153.172 19.252 152.941 20.0064 152.609 20.9661C152.278 21.9265 151.905 22.966 151.492 24.0835C151.077 25.2015 150.638 26.3441 150.175 27.5117C149.711 28.6793 149.272 29.735 148.859 30.6792H145.927C145.794 30.331 145.617 29.8219 145.393 29.1511C145.17 28.4804 144.925 27.7473 144.66 26.953C144.395 26.158 144.135 25.3425 143.878 24.5057C143.621 23.6696 143.385 22.9036 143.17 22.2078C142.955 22.9036 142.718 23.6696 142.462 24.5057C142.205 25.3425 141.949 26.158 141.692 26.953C141.435 27.7473 141.199 28.4804 140.984 29.1511C140.769 29.8219 140.594 30.331 140.462 30.6792H137.531ZM129.806 30.6792V23.8228C129.806 22.4485 129.462 21.38 128.775 20.6185C128.088 19.8571 127.048 19.4754 125.657 19.4754C124.266 19.4754 123.231 19.8571 122.552 20.6185C121.873 21.38 121.534 22.4485 121.534 23.8228V30.6792H119.894V23.3259C119.894 22.5476 120.027 21.8351 120.291 21.1895C120.557 20.5439 120.938 19.989 121.434 19.5249C121.931 19.0621 122.535 18.7017 123.248 18.4448C123.96 18.188 124.763 18.0599 125.657 18.0599C126.552 18.0599 127.359 18.188 128.079 18.4448C128.8 18.7017 129.408 19.0621 129.905 19.5249C130.402 19.989 130.783 20.5439 131.048 21.1895C131.313 21.8351 131.445 22.5476 131.445 23.3259V30.6792H129.806ZM116.044 24.543C116.044 23.8311 115.928 23.1643 115.696 22.5431C115.464 21.9226 115.133 21.38 114.702 20.9166C114.272 20.4531 113.759 20.0927 113.163 19.8358C112.566 19.579 111.904 19.4509 111.175 19.4509C110.446 19.4509 109.784 19.579 109.188 19.8358C108.591 20.0927 108.078 20.4531 107.648 20.9166C107.216 21.38 106.886 21.9226 106.654 22.5431C106.422 23.1643 106.306 23.8311 106.306 24.543C106.306 25.2389 106.426 25.8967 106.667 26.5179C106.906 27.139 107.238 27.6771 107.66 28.1328C108.082 28.5886 108.591 28.949 109.188 29.2136C109.784 29.4781 110.446 29.6107 111.175 29.6107C111.904 29.6107 112.566 29.4781 113.163 29.2136C113.759 28.949 114.272 28.5886 114.702 28.1328C115.133 27.6771 115.464 27.139 115.696 26.5179C115.928 25.8967 116.044 25.2389 116.044 24.543ZM117.808 24.543C117.808 25.4378 117.642 26.2784 117.311 27.0643C116.979 27.8516 116.519 28.5384 115.932 29.126C115.344 29.7144 114.644 30.1784 113.833 30.5177C113.022 30.8562 112.135 31.0268 111.175 31.0268C110.215 31.0268 109.328 30.8562 108.517 30.5177C107.706 30.1784 107.006 29.7144 106.418 29.126C105.83 28.5384 105.37 27.8516 105.039 27.0643C104.708 26.2784 104.543 25.4378 104.543 24.543C104.543 23.6329 104.708 22.7839 105.039 21.9967C105.37 21.2107 105.83 20.5233 106.418 19.9356C107.006 19.3479 107.706 18.8877 108.517 18.5568C109.328 18.2253 110.215 18.0599 111.175 18.0599C112.135 18.0599 113.022 18.2253 113.833 18.5568C114.644 18.8877 115.344 19.3479 115.932 19.9356C116.519 20.5233 116.979 21.2107 117.311 21.9967C117.642 22.7839 117.808 23.6329 117.808 24.543ZM93.6374 23.8723C94.0184 23.8891 94.3821 23.8974 94.7303 23.8974H95.7737C96.6839 23.8974 97.4216 23.8395 97.9848 23.723C98.5474 23.6078 98.9863 23.4585 99.3011 23.2763C99.6152 23.0941 99.8225 22.8875 99.9216 22.6551C100.021 22.4234 100.071 22.1833 100.071 21.9349C100.071 21.306 99.8186 20.8342 99.3133 20.5188C98.808 20.2047 98.183 20.047 97.4377 20.047C96.8249 20.047 96.2868 20.1551 95.8233 20.3701C95.3599 20.5851 94.9698 20.8709 94.6557 21.2268C94.3409 21.5834 94.097 21.9928 93.9232 22.4562C93.7494 22.9203 93.6535 23.3922 93.6374 23.8723ZM102.357 29.7601C102.224 29.8431 102.017 29.9583 101.735 30.1076C101.454 30.2563 101.102 30.3973 100.68 30.5299C100.258 30.6625 99.7684 30.7784 99.2142 30.8775C98.6587 30.9766 98.0504 31.0268 97.3887 31.0268C96.4606 31.0268 95.5954 30.8859 94.7928 30.6039C93.9888 30.3226 93.2853 29.9049 92.6809 29.35C92.0765 28.7952 91.6001 28.1161 91.2525 27.3128C90.905 26.5101 90.7305 25.5865 90.7305 24.543C90.7305 23.5492 90.9005 22.6429 91.2397 21.8235C91.5795 21.0035 92.0514 20.2999 92.6558 19.7116C93.2608 19.1239 93.9727 18.6682 94.7928 18.3451C95.6122 18.0226 96.5101 17.861 97.4879 17.861C98.3485 17.861 99.1106 17.973 99.7729 18.1964C100.435 18.4197 100.994 18.7184 101.45 19.0905C101.905 19.4631 102.249 19.8983 102.481 20.3945C102.712 20.8921 102.828 21.4219 102.828 21.9844C102.828 22.5644 102.72 23.0903 102.505 23.5621C102.29 24.0339 101.909 24.4401 101.363 24.7793C100.816 25.1185 100.079 25.3837 99.1518 25.5736C98.2249 25.7647 97.0489 25.86 95.6244 25.86C95.2929 25.86 94.9827 25.8562 94.693 25.8478C94.4034 25.8394 94.0925 25.8265 93.7616 25.8105C93.8936 26.655 94.3036 27.3379 94.991 27.8593C95.6785 28.3813 96.6594 28.642 97.9346 28.642C98.3652 28.642 98.763 28.6092 99.1273 28.5429C99.491 28.4766 99.8186 28.3935 100.108 28.2944C100.398 28.1946 100.646 28.0955 100.854 27.9964C101.06 27.8966 101.213 27.8219 101.313 27.7724L102.357 29.7601ZM82.3099 17.4388C82.3099 16.5447 82.4342 15.7742 82.6826 15.1286C82.9311 14.483 83.2825 13.9571 83.7383 13.551C84.1933 13.1454 84.7321 12.8474 85.3526 12.6569C85.9737 12.467 86.6573 12.3711 87.4021 12.3711C88.7602 12.3711 89.7206 12.5327 90.2838 12.8551C90.8464 13.1783 91.1283 13.5883 91.1283 14.0852C91.1283 14.3671 91.0498 14.6156 90.8921 14.8306C90.735 15.0456 90.5651 15.2116 90.3829 15.3275C90.1184 15.1119 89.7579 14.9381 89.3029 14.8055C88.8465 14.6729 88.3624 14.6066 87.8494 14.6066C86.8723 14.6066 86.1765 14.855 85.7626 15.352C85.3487 15.8489 85.1415 16.5531 85.1415 17.4639V18.2086H88.8677C89.4142 18.2086 89.7991 18.3206 90.0231 18.544C90.2465 18.7673 90.3585 19.0943 90.3585 19.5249C90.3585 19.8069 90.3166 20.0676 90.2342 20.3076C90.1512 20.5484 90.0849 20.7177 90.0354 20.8168H85.1415V30.6792H82.3099V17.4388ZM76.522 25.1146C76.3566 25.0812 76.0463 25.0316 75.5906 24.9653C75.1348 24.8996 74.4519 24.8662 73.5411 24.8662C72.4147 24.8662 71.5953 25.0361 71.0822 25.3753C70.568 25.7152 70.3118 26.2488 70.3118 26.9781C70.3118 27.2761 70.3652 27.549 70.4733 27.7975C70.5808 28.0459 70.7668 28.2571 71.0327 28.4309C71.2972 28.6047 71.6571 28.7373 72.1128 28.8287C72.5679 28.9194 73.1349 28.9651 73.8147 28.9651C74.5761 28.9651 75.1805 28.9362 75.6279 28.8782C76.0753 28.8203 76.3726 28.7746 76.522 28.7411V25.1146ZM79.3291 30.629C79.163 30.6625 78.9023 30.6998 78.5463 30.741C78.1904 30.7822 77.772 30.8234 77.2918 30.8653C76.8116 30.9065 76.2735 30.9438 75.6775 30.9766C75.0814 31.0101 74.4603 31.0268 73.8147 31.0268C72.5228 31.0268 71.4672 30.9148 70.6471 30.6915C69.8277 30.4675 69.1815 30.1701 68.7096 29.7967C68.2378 29.4241 67.9147 28.9941 67.7409 28.5055C67.5671 28.017 67.4796 27.5162 67.4796 27.0025C67.4796 26.3235 67.5832 25.7274 67.7898 25.2138C67.9977 24.7007 68.337 24.2701 68.8094 23.9225C69.2812 23.5743 69.8972 23.3136 70.66 23.1398C71.4208 22.966 72.3484 22.8785 73.442 22.8785C74.0708 22.8785 74.6669 22.8997 75.2301 22.9409C75.7933 22.9828 76.2156 23.0201 76.4969 23.0529C76.4969 22.4736 76.4016 21.9928 76.2117 21.6117C76.0212 21.2313 75.7599 20.9333 75.429 20.7177C75.0975 20.5027 74.7004 20.3533 74.2369 20.271C73.7728 20.1879 73.2598 20.1461 72.6966 20.1461C71.753 20.1461 70.9947 20.2542 70.4238 20.4692C69.8522 20.6848 69.4756 20.867 69.2935 21.0157C69.1937 20.9333 69.0572 20.7756 68.8834 20.5439C68.7097 20.3122 68.6228 20.0309 68.6228 19.6994C68.6228 19.4676 68.6845 19.2398 68.8094 19.0158C68.933 18.7924 69.1525 18.5935 69.4673 18.4197C69.7814 18.2459 70.2036 18.1095 70.734 18.0097C71.2638 17.9106 71.9345 17.861 72.7462 17.861C73.7233 17.861 74.6128 17.9563 75.4168 18.1462C76.2194 18.3373 76.9108 18.6392 77.4907 19.0531C78.07 19.4676 78.5219 20.0141 78.8444 20.6926C79.1675 21.3723 79.3291 22.1923 79.3291 23.1521V30.629ZM51.9051 26.7792C52.0873 26.9118 52.3602 27.0733 52.7245 27.2632C53.0889 27.4538 53.5401 27.6443 54.0782 27.8348C54.6163 28.0253 55.2297 28.1869 55.9165 28.3195C56.604 28.4515 57.3532 28.5178 58.1649 28.5178C59.6061 28.5178 60.6366 28.3066 61.2578 27.8844C61.8783 27.4621 62.1885 26.8616 62.1885 26.0834C62.1885 25.7023 62.1184 25.3798 61.9781 25.1146C61.8365 24.8494 61.6298 24.6222 61.3569 24.4317C61.084 24.2412 60.7525 24.088 60.3631 23.9721C59.9737 23.8562 59.5308 23.7565 59.0339 23.6741L56.3015 23.1772C55.6063 23.0613 54.9356 22.8875 54.29 22.6551C53.6437 22.4234 53.0728 22.1177 52.5759 21.7366C52.0789 21.3556 51.6811 20.8876 51.3831 20.3327C51.0851 19.7779 50.9364 19.111 50.9364 18.3328C50.9364 17.6377 51.0639 16.9753 51.3207 16.3458C51.5775 15.7163 51.9875 15.1698 52.5508 14.7064C53.1133 14.2423 53.8259 13.8741 54.6871 13.6005C55.5477 13.3276 56.5911 13.1911 57.8167 13.1911C58.7114 13.1911 59.4896 13.2407 60.1519 13.3398C60.8143 13.4396 61.3775 13.5593 61.841 13.7003C62.3051 13.8406 62.6777 13.9861 62.9597 14.1348C63.2403 14.2841 63.4469 14.4 63.5802 14.483C63.8454 14.6652 64.0597 14.8634 64.2258 15.0784C64.3912 15.294 64.4743 15.5425 64.4743 15.8238C64.4743 16.2055 64.3584 16.5569 64.1267 16.8794C63.8949 17.2025 63.6793 17.431 63.4804 17.563C63.3317 17.3976 63.0955 17.2116 62.7724 17.0036C62.4499 16.797 62.0521 16.6026 61.5803 16.4205C61.1085 16.2383 60.5575 16.0806 59.9286 15.948C59.2991 15.8161 58.6123 15.7498 57.8669 15.7498C57.1215 15.7498 56.4965 15.8077 55.9912 15.9236C55.4859 16.0394 55.0843 16.201 54.7862 16.4076C54.4882 16.6149 54.2726 16.8633 54.1406 17.153C54.0074 17.4433 53.9417 17.7703 53.9417 18.1339C53.9417 18.7641 54.1863 19.2565 54.6749 19.6125C55.1628 19.9684 55.979 20.2542 57.1215 20.4692L59.9035 20.9906C61.7084 21.3221 63.0665 21.8647 63.978 22.6178C64.8881 23.3722 65.3439 24.4607 65.3439 25.8845C65.3439 26.6794 65.1862 27.3965 64.872 28.0337C64.5573 28.671 64.0971 29.2219 63.4933 29.6854C62.8882 30.1488 62.1351 30.5054 61.2327 30.7533C60.3302 31.0017 59.2907 31.1259 58.1147 31.1259C57.1215 31.1259 56.2101 31.0474 55.3823 30.8897C54.5545 30.7327 53.8175 30.5421 53.1713 30.3188C52.5256 30.0954 51.9875 29.8676 51.5576 29.6352C51.1263 29.4041 50.8115 29.2219 50.6133 29.0887L51.9051 26.7792ZM192.407 18.3103C192.407 17.6061 192.887 16.8968 193.674 16.8968C194.499 16.8968 194.879 17.619 194.901 18.3103H192.407ZM187.844 21.0485C187.519 21.0485 187.285 21.0054 187.043 20.9249V17.254C187.275 17.1588 187.542 17.0506 187.949 17.0506C189.06 17.0506 189.729 17.928 189.729 18.9334C189.729 20.1255 188.927 21.0485 187.844 21.0485ZM196.583 18.9868C196.583 16.9953 195.447 15.6802 193.712 15.6802C192.45 15.6802 191.545 16.3992 191.102 17.4452C190.614 16.266 189.483 15.6802 188.293 15.6802C187.813 15.6802 187.421 15.7633 187.043 15.8688V12.6453H185.414V21.9162C185.947 22.2129 186.664 22.3764 187.529 22.3764C189.058 22.3764 190.408 21.6549 191.016 20.3746C191.409 21.5139 192.354 22.3764 193.984 22.3764C194.742 22.3764 195.598 22.1724 196.317 21.6748L195.92 20.6256C195.364 20.9249 194.869 21.0762 194.257 21.0762C193.261 21.0762 192.477 20.4093 192.45 19.4644H196.583V18.9868ZM184.272 22.2734C183.79 22.2734 183.412 21.8962 183.412 21.4006C183.412 20.8947 183.79 20.5156 184.272 20.5156C184.746 20.5156 185.125 20.8947 185.125 21.4006C185.125 21.8962 184.746 22.2734 184.272 22.2734Z" fill="white"/>
<path d="M36.4951 10.2429L18.248 24.2231L0 10.2431C-8.17889e-06 4.87183 8.16962 0.519812 18.2478 0.519531C28.3228 0.519283 36.4946 4.87203 36.4951 10.2429Z" fill="#D8D900"/>
<path d="M18.248 24.2231L2.93557e-05 38.2056L0 10.2431L18.248 24.2231Z" fill="#9AC014"/>
<path d="M36.4948 38.2058C36.4948 39.7673 35.9013 41.3385 34.7092 42.5306C32.3482 44.8813 24.8983 52.3319 22.5469 54.6904C21.3632 55.8773 19.7991 56.4682 18.2478 56.4682C16.6856 56.4682 15.1317 55.8773 13.948 54.6904C11.8181 52.5656 4.36043 45.0976 1.778 42.5203C0.585904 41.3289 2.93557e-05 39.7672 2.93557e-05 38.2056L18.248 24.2231L36.4948 38.2058Z" fill="#55AD2E"/>
<path d="M36.4951 10.2429L36.4948 38.2058L18.248 24.2231L36.4951 10.2429Z" fill="#9AC014"/>
</g>
<defs>
<clipPath id="clip0_8064_101753">
<rect width="196.966" height="56" fill="white" transform="translate(0 0.519531)"/>
</clipPath>
</defs>
</svg>
