<svg width="64" height="64" viewBox="0 0 64 64" fill="none" xmlns="http://www.w3.org/2000/svg">
<path d="M12.201 51.799C10.6389 53.3611 8.08313 53.3744 6.72798 51.6297C3.6891 47.7174 1.58843 43.1373 0.614871 38.2429C-0.619856 32.0355 0.0138508 25.6014 2.43586 19.7541C4.85786 13.9069 8.95938 8.90918 14.2218 5.39297C19.4841 1.87677 25.671 -7.54726e-08 32 0C38.329 7.54726e-08 44.5159 1.87677 49.7782 5.39297C55.0406 8.90918 59.1421 13.9069 61.5641 19.7541C63.9861 25.6014 64.6199 32.0355 63.3851 38.2429C62.4116 43.1373 60.3109 47.7174 57.272 51.6297C55.9169 53.3744 53.3611 53.3611 51.799 51.799C50.2369 50.2369 50.2695 47.7196 51.5508 45.92C53.5093 43.1693 54.8742 40.0234 55.5388 36.6822C56.4649 32.0266 55.9896 27.201 54.1731 22.8156C52.3566 18.4302 49.2805 14.6819 45.3337 12.0447C41.3869 9.40758 36.7468 8 32 8C27.2532 8 22.6131 9.40758 18.6663 12.0447C14.7195 14.6819 11.6434 18.4302 9.82689 22.8156C8.01039 27.201 7.53511 32.0266 8.46115 36.6822C9.12576 40.0234 10.4907 43.1693 12.4492 45.92C13.7305 47.7196 13.7631 50.2369 12.201 51.799Z" fill="black" fill-opacity="0.08"/>
<path d="M12.201 51.799C10.6389 53.3611 8.08317 53.3744 6.72802 51.6298C4.46299 48.7137 2.71342 45.4193 1.56619 41.8885C0.00567679 37.0858 -0.39601 31.9819 0.393973 26.9941C1.18396 22.0063 3.14318 17.2764 6.11145 13.1909C8.29361 10.1874 10.9756 7.59494 14.0308 5.52152C15.8588 4.28101 18.2853 5.08346 19.2883 7.05182C20.2912 9.02018 19.4823 11.4042 17.7076 12.7198C15.7526 14.169 14.0231 15.9118 12.5836 17.8932C10.3574 20.9573 8.88797 24.5048 8.29548 28.2456C7.70299 31.9864 8.00426 35.8143 9.17464 39.4164C9.93145 41.7456 11.0378 43.9376 12.4492 45.92C13.7305 47.7196 13.7631 50.2369 12.201 51.799Z" fill="#F6AD37"/>
<path d="M34.7884 28.1822C36.6378 29.4063 37.1091 31.9518 35.841 33.8676C34.5729 35.7835 32.0457 36.3443 30.1963 35.1202C29.1075 34.3995 23.8585 29.1963 19.7249 25.0381C18.5096 23.8156 19.8162 21.8416 21.4163 22.4826C26.8591 24.6629 33.6997 27.4616 34.7884 28.1822Z" fill="#16191D"/>
</svg>
