<svg width="64" height="64" viewBox="0 0 64 64" fill="none" xmlns="http://www.w3.org/2000/svg">
<path d="M12.201 51.799C10.6389 53.3611 8.08313 53.3744 6.72798 51.6297C3.6891 47.7174 1.58843 43.1373 0.614871 38.2429C-0.619856 32.0355 0.0138508 25.6014 2.43586 19.7541C4.85786 13.9069 8.95938 8.90918 14.2218 5.39297C19.4841 1.87677 25.671 -7.54726e-08 32 0C38.329 7.54726e-08 44.5159 1.87677 49.7782 5.39297C55.0406 8.90918 59.1421 13.9069 61.5641 19.7541C63.9861 25.6014 64.6199 32.0355 63.3851 38.2429C62.4116 43.1373 60.3109 47.7174 57.272 51.6297C55.9169 53.3744 53.3611 53.3611 51.799 51.799C50.2369 50.2369 50.2695 47.7196 51.5508 45.92C53.5093 43.1693 54.8742 40.0234 55.5388 36.6822C56.4649 32.0266 55.9896 27.201 54.1731 22.8156C52.3566 18.4302 49.2805 14.6819 45.3337 12.0447C41.3869 9.40758 36.7468 8 32 8C27.2532 8 22.6131 9.40758 18.6663 12.0447C14.7195 14.6819 11.6434 18.4302 9.82689 22.8156C8.01039 27.201 7.53511 32.0266 8.46115 36.6822C9.12576 40.0234 10.4907 43.1693 12.4492 45.92C13.7305 47.7196 13.7631 50.2369 12.201 51.799Z" fill="black" fill-opacity="0.08"/>
<path d="M12.201 51.799C10.6389 53.3611 8.08306 53.3744 6.7279 51.6297C2.91142 46.7163 0.591308 40.7706 0.0986452 34.5107C-0.499158 26.9149 1.63295 19.355 6.11146 13.1909C10.59 7.02673 17.121 2.66285 24.5298 0.884161C30.6355 -0.581696 37.0072 -0.21247 42.8595 1.89889C44.9375 2.6486 45.7147 5.08346 44.7117 7.05182C43.7088 9.02018 41.3046 9.76696 39.1971 9.1045C35.0729 7.80808 30.6491 7.64235 26.3973 8.66312C20.8407 9.99714 15.9425 13.27 12.5836 17.8932C9.22471 22.5163 7.62563 28.1862 8.07398 33.883C8.41706 38.2422 9.94168 42.3982 12.4491 45.92C13.7304 47.7196 13.7631 50.2369 12.201 51.799Z" fill="#FFEA2E"/>
<path d="M36.4254 31.7947C36.3673 34.0118 34.4584 35.7603 32.1617 35.7001C29.865 35.64 28.0502 33.794 28.1082 31.5769C28.1424 30.2717 29.7734 23.063 31.1093 17.354C31.502 15.6756 33.8684 15.7375 34.1728 17.4342C35.2081 23.2053 36.4596 30.4895 36.4254 31.7947Z" fill="#16191D"/>
</svg>
