<svg width="64" height="64" viewBox="0 0 64 64" fill="none" xmlns="http://www.w3.org/2000/svg">
<path d="M12.201 51.799C10.6389 53.3611 8.08313 53.3744 6.72798 51.6297C3.6891 47.7174 1.58843 43.1373 0.614871 38.2429C-0.619856 32.0355 0.0138508 25.6014 2.43586 19.7541C4.85786 13.9069 8.95938 8.90918 14.2218 5.39297C19.4841 1.87677 25.671 -7.54726e-08 32 0C38.329 7.54726e-08 44.5159 1.87677 49.7782 5.39297C55.0406 8.90918 59.1421 13.9069 61.5641 19.7541C63.9861 25.6014 64.6199 32.0355 63.3851 38.2429C62.4116 43.1373 60.3109 47.7174 57.272 51.6297C55.9169 53.3744 53.3611 53.3611 51.799 51.799C50.2369 50.2369 50.2695 47.7196 51.5508 45.92C53.5093 43.1693 54.8742 40.0234 55.5388 36.6822C56.4649 32.0266 55.9896 27.201 54.1731 22.8156C52.3566 18.4302 49.2805 14.6819 45.3337 12.0447C41.3869 9.40758 36.7468 8 32 8C27.2532 8 22.6131 9.40758 18.6663 12.0447C14.7195 14.6819 11.6434 18.4302 9.82689 22.8156C8.01039 27.201 7.53511 32.0266 8.46115 36.6822C9.12576 40.0234 10.4907 43.1693 12.4492 45.92C13.7305 47.7196 13.7631 50.2369 12.201 51.799Z" fill="black" fill-opacity="0.08"/>
<path d="M12.201 51.799C10.6389 53.3611 8.08317 53.3744 6.72802 51.6298C4.46299 48.7137 2.71342 45.4193 1.56619 41.8885C0.418966 38.3577 -0.101962 34.6642 0.0164566 30.9737C0.0873055 28.7657 2.16279 27.2743 4.34473 27.6198C6.52667 27.9654 7.97991 30.0211 8.0011 32.2301C8.02444 34.6636 8.41784 37.0872 9.17464 39.4164C9.93145 41.7456 11.0378 43.9376 12.4492 45.92C13.7305 47.7196 13.7631 50.2369 12.201 51.799Z" fill="#F65C3C"/>
<path d="M30.6927 27.0078C32.6134 25.8989 35.1017 26.6129 36.2504 28.6026C37.3992 30.5923 36.7734 33.1042 34.8527 34.2131C33.722 34.866 26.7233 37.2418 21.1576 39.0858C19.5213 39.6279 18.3377 37.5778 19.6253 36.4318C24.0051 32.5337 29.562 27.6606 30.6927 27.0078Z" fill="#16191D"/>
</svg>
