<svg width="64" height="64" viewBox="0 0 64 64" fill="none" xmlns="http://www.w3.org/2000/svg">
<path d="M12.201 51.799C10.6389 53.3611 8.08313 53.3744 6.72798 51.6297C3.6891 47.7174 1.58843 43.1373 0.614871 38.2429C-0.619856 32.0355 0.0138508 25.6014 2.43586 19.7541C4.85786 13.9069 8.95938 8.90918 14.2218 5.39297C19.4841 1.87677 25.671 -7.54726e-08 32 0C38.329 7.54726e-08 44.5159 1.87677 49.7782 5.39297C55.0406 8.90918 59.1421 13.9069 61.5641 19.7541C63.9861 25.6014 64.6199 32.0355 63.3851 38.2429C62.4116 43.1373 60.3109 47.7174 57.272 51.6297C55.9169 53.3744 53.3611 53.3611 51.799 51.799C50.2369 50.2369 50.2695 47.7196 51.5508 45.92C53.5093 43.1693 54.8742 40.0234 55.5388 36.6822C56.4649 32.0266 55.9896 27.201 54.1731 22.8156C52.3566 18.4302 49.2805 14.6819 45.3337 12.0447C41.3869 9.40758 36.7468 8 32 8C27.2532 8 22.6131 9.40758 18.6663 12.0447C14.7195 14.6819 11.6434 18.4302 9.82689 22.8156C8.01039 27.201 7.53511 32.0266 8.46115 36.6822C9.12576 40.0234 10.4907 43.1693 12.4492 45.92C13.7305 47.7196 13.7631 50.2369 12.201 51.799Z" fill="black" fill-opacity="0.08"/>
<path d="M12.201 51.799C10.6389 53.3611 8.08317 53.3744 6.72802 51.6298C4.46299 48.7137 2.71342 45.4193 1.56619 41.8885C0.00567629 37.0858 -0.39601 31.9819 0.393973 26.9941C1.18396 22.0063 3.14318 17.2764 6.11146 13.1909C9.07973 9.10539 12.9728 5.78041 17.4723 3.48779C21.9718 1.19517 26.9501 -3.61219e-07 32 0C37.0499 3.61219e-07 42.0282 1.19517 46.5277 3.48779C51.0272 5.78041 54.9203 9.10539 57.8885 13.1909C60.0707 16.1944 61.7075 19.5462 62.7353 23.0926C63.3502 25.2145 61.8372 27.2743 59.6553 27.6198C57.4733 27.9654 55.456 26.4594 54.7532 24.3651C53.979 22.0579 52.8559 19.8745 51.4164 17.8932C49.1902 14.829 46.2704 12.3353 42.8958 10.6158C39.5211 8.89638 35.7875 8 32 8C28.2126 8 24.4789 8.89638 21.1042 10.6158C17.7296 12.3353 14.8098 14.829 12.5836 17.8932C10.3574 20.9573 8.88797 24.5048 8.29548 28.2456C7.70299 31.9864 8.00426 35.8143 9.17464 39.4164C9.93145 41.7456 11.0378 43.9376 12.4492 45.92C13.7305 47.7196 13.7631 50.2369 12.201 51.799Z" fill="#DCDF55"/>
<path d="M33.7265 35.2484C31.8255 36.3906 29.3251 35.7201 28.1418 33.7508C26.9585 31.7814 27.5403 29.259 29.4414 28.1167C30.5605 27.4443 37.5167 24.9466 43.0494 23.0058C44.676 22.4352 45.8952 24.4643 44.6277 25.6326C40.3167 29.6066 34.8456 34.5759 33.7265 35.2484Z" fill="#16191D"/>
</svg>
