<svg width="197" height="56" viewBox="0 0 197 56" fill="none" xmlns="http://www.w3.org/2000/svg">
<g clip-path="url(#clip0_8064_160575)">
<path d="M145.485 48.3785L142.943 39.5041H144.52L146.465 46.3766L148.565 39.5041H150.175L152.014 46.3766L154.244 39.5041H155.626L152.733 48.3785H151.115L149.235 41.5066L147.111 48.3785H145.485Z" fill="#5B5A5F"/>
<path d="M160.349 48.5832C159.08 48.5832 158.067 48.1622 157.309 47.3203C156.552 46.479 156.174 45.3525 156.174 43.9416C156.174 42.5139 156.554 41.3849 157.314 40.5546C158.073 39.7236 159.105 39.3084 160.407 39.3084C161.709 39.3084 162.739 39.7236 163.5 40.5546C164.26 41.3849 164.639 42.5088 164.639 43.9249C164.639 45.3744 164.258 46.5131 163.496 47.3409C162.733 48.1686 161.684 48.5832 160.349 48.5832ZM160.374 47.3737C162.079 47.3737 162.932 46.2241 162.932 43.9249C162.932 41.6533 162.09 40.5172 160.407 40.5172C158.729 40.5172 157.89 41.6591 157.89 43.9416C157.89 46.2292 158.718 47.3737 160.374 47.3737Z" fill="#5B5A5F"/>
<path d="M166.682 48.3785V39.5041H168.291V41.1712C168.929 39.9289 169.855 39.3084 171.07 39.3084C171.233 39.3084 171.405 39.3219 171.585 39.3489V40.8526C171.306 40.7599 171.062 40.7135 170.849 40.7135C169.83 40.7135 168.978 41.3186 168.291 42.5274V48.3785H166.682Z" fill="#5B5A5F"/>
<path d="M173.057 48.3785V35.4753H174.666V43.8109L178.426 39.5041H180.158L176.57 43.6474L180.902 48.3785H178.843L174.666 43.827V48.3785H173.057Z" fill="#5B5A5F"/>
<path d="M136.233 49.223V50.1872C135.318 50.4163 134.506 50.5309 133.798 50.5309C131.679 50.5309 129.983 49.8486 128.711 48.4834C127.439 47.1188 126.803 45.2978 126.803 43.0211C126.803 40.7438 127.484 38.8385 128.846 37.3046C130.208 35.7714 131.899 35.0048 133.921 35.0048C135.669 35.0048 137.088 35.624 138.178 36.8637C139.268 38.1028 139.812 39.7197 139.812 41.7132C139.812 43.2876 139.553 44.5138 139.036 45.3905C138.518 46.2678 137.794 46.7062 136.862 46.7062C135.942 46.7062 135.277 46.1533 134.868 45.0474C134.024 46.1533 133.165 46.7062 132.294 46.7062C131.602 46.7062 131.052 46.4204 130.644 45.8482C130.235 45.2766 130.031 44.5054 130.031 43.5354C130.031 42.0923 130.407 40.915 131.159 40.0055C131.91 39.096 132.882 38.6409 134.076 38.6409C134.5 38.6409 135.135 38.6898 135.98 38.7877V42.9967L135.988 43.7562C135.988 44.5248 136.063 45.0474 136.213 45.3255C136.362 45.6029 136.644 45.742 137.058 45.742C138.257 45.742 138.856 44.5383 138.856 42.1303C138.856 40.1638 138.428 38.6448 137.573 37.5743C136.718 36.5039 135.503 35.969 133.928 35.969C132.158 35.969 130.689 36.6346 129.52 37.967C128.351 39.2987 127.767 40.9755 127.767 42.9967C127.767 45.0069 128.306 46.6071 129.385 47.7972C130.464 48.9874 131.918 49.5828 133.749 49.5828C134.479 49.5828 135.307 49.4631 136.233 49.223ZM134.77 39.7442C134.345 39.6457 134.016 39.5968 133.781 39.5968C132.12 39.5968 131.289 40.8719 131.289 43.4215C131.289 44.8865 131.725 45.6197 132.596 45.6197C133.408 45.6197 134.133 44.974 134.77 43.6828V39.7442Z" fill="#5B5A5F"/>
<path d="M173.997 27.9487C174.561 27.9487 175.077 27.8451 175.55 27.6384C176.022 27.4312 176.427 27.1499 176.767 26.7933C177.106 26.4373 177.367 26.0151 177.549 25.5265C177.732 25.0386 177.823 24.5037 177.823 23.9244C177.823 23.3451 177.732 22.8064 177.549 22.3094C177.367 21.8132 177.106 21.3864 176.767 21.0304C176.427 20.6745 176.022 20.3932 175.55 20.1853C175.077 19.9787 174.561 19.875 173.997 19.875C173.417 19.875 172.892 19.9787 172.42 20.1853C171.948 20.3932 171.546 20.679 171.215 21.0427C170.884 21.407 170.623 21.8376 170.433 22.3345C170.242 22.8315 170.147 23.3618 170.147 23.9244C170.147 24.5205 170.242 25.0669 170.433 25.5639C170.623 26.0608 170.888 26.483 171.228 26.8306C171.567 27.1789 171.972 27.4518 172.445 27.6507C172.917 27.8489 173.434 27.9487 173.997 27.9487ZM167.34 13.1686C167.34 12.7212 167.472 12.3897 167.737 12.1747C168.002 11.9597 168.375 11.8516 168.855 11.8516C169.153 11.8516 169.427 11.8889 169.675 11.9636C169.924 12.0376 170.089 12.0917 170.172 12.1252V19.2539C170.586 18.7241 171.157 18.2729 171.886 17.9002C172.615 17.5282 173.451 17.3415 174.395 17.3415C175.305 17.3415 176.146 17.5031 176.916 17.8256C177.686 18.1487 178.357 18.6044 178.929 19.1921C179.5 19.7804 179.947 20.4756 180.27 21.2789C180.592 22.0822 180.754 22.9641 180.754 23.9244C180.754 24.8681 180.589 25.746 180.257 26.5577C179.926 27.3694 179.462 28.0646 178.866 28.6445C178.269 29.2238 177.562 29.6795 176.742 30.0104C175.923 30.3412 175.024 30.5073 174.047 30.5073C173.07 30.5073 172.172 30.358 171.352 30.06C170.532 29.7619 169.824 29.3152 169.228 28.7185C168.632 28.1225 168.168 27.3771 167.837 26.483C167.505 25.589 167.34 24.5372 167.34 23.3284V13.1686ZM156.335 23.3528C156.716 23.3696 157.08 23.3779 157.428 23.3779H158.472C159.382 23.3779 160.119 23.32 160.682 23.2035C161.245 23.0883 161.684 22.9389 161.999 22.7568C162.313 22.5746 162.521 22.368 162.62 22.1356C162.719 21.9039 162.769 21.6638 162.769 21.4154C162.769 20.7865 162.517 20.3147 162.011 19.9993C161.506 19.6852 160.881 19.5275 160.136 19.5275C159.523 19.5275 158.985 19.6356 158.521 19.8506C158.057 20.0656 157.668 20.3514 157.354 20.7073C157.039 21.0639 156.794 21.4733 156.621 21.9367C156.447 22.4008 156.352 22.8727 156.335 23.3528ZM165.055 29.2406C164.922 29.3236 164.715 29.4388 164.434 29.5881C164.152 29.7368 163.8 29.8778 163.378 30.0104C162.955 30.143 162.467 30.2589 161.912 30.358C161.357 30.4571 160.749 30.5073 160.086 30.5073C159.159 30.5073 158.294 30.3664 157.49 30.0844C156.687 29.8031 155.983 29.3854 155.379 28.8305C154.775 28.2757 154.298 27.5966 153.951 26.7933C153.602 25.9906 153.429 25.0669 153.429 24.0235C153.429 23.0297 153.599 22.1234 153.938 21.304C154.278 20.484 154.749 19.7804 155.355 19.1921C155.958 18.6044 156.671 18.1487 157.49 17.8256C158.31 17.5031 159.208 17.3415 160.185 17.3415C161.047 17.3415 161.809 17.4535 162.471 17.6769C163.133 17.9002 163.692 18.1989 164.148 18.5709C164.603 18.9436 164.947 19.3788 165.178 19.875C165.411 20.3726 165.527 20.9024 165.527 21.4649C165.527 22.0449 165.418 22.5708 165.203 23.0426C164.988 23.5144 164.607 23.9206 164.061 24.2598C163.514 24.599 162.777 24.8642 161.85 25.0541C160.922 25.2452 159.747 25.3405 158.323 25.3405C157.991 25.3405 157.681 25.3367 157.391 25.3283C157.101 25.3199 156.791 25.307 156.459 25.2909C156.592 26.1355 157.001 26.8184 157.689 27.3398C158.376 27.8618 159.358 28.1225 160.633 28.1225C161.063 28.1225 161.46 28.0897 161.825 28.0234C162.189 27.9571 162.517 27.874 162.806 27.7749C163.096 27.6751 163.345 27.576 163.551 27.4769C163.758 27.3771 163.912 27.3024 164.011 27.2529L165.055 29.2406ZM137.531 30.1597C136.719 28.2551 136.053 26.6407 135.531 25.3154C135.009 23.9907 134.596 22.8932 134.29 22.0236C133.982 21.1547 133.768 20.484 133.643 20.0121C133.519 19.5397 133.457 19.2043 133.457 19.0054C133.457 18.6578 133.573 18.3515 133.805 18.0869C134.037 17.8224 134.393 17.6891 134.873 17.6891C135.237 17.6891 135.523 17.7226 135.73 17.7889C135.937 17.8552 136.074 17.9047 136.14 17.9376C136.339 18.6669 136.562 19.4406 136.81 20.2606C137.059 21.08 137.315 21.8962 137.581 22.7072C137.845 23.5189 138.107 24.2932 138.363 25.0296C138.62 25.7666 138.848 26.4251 139.046 27.0044C139.228 26.4914 139.423 25.9037 139.63 25.2414C139.837 24.579 140.052 23.8955 140.276 23.1913C140.5 22.4877 140.719 21.7758 140.934 21.0549C141.149 20.3346 141.348 19.6517 141.53 19.0054C141.663 18.5748 141.849 18.2478 142.089 18.0245C142.329 17.8011 142.714 17.6891 143.244 17.6891C143.576 17.6891 143.874 17.7348 144.138 17.8256C144.404 17.9176 144.569 17.9794 144.635 18.0122C144.85 18.7576 145.083 19.5397 145.331 20.3597C145.579 21.1791 145.827 21.9863 146.077 22.7819C146.325 23.5768 146.568 24.339 146.809 25.0669C147.049 25.7956 147.269 26.4418 147.468 27.0044C147.898 25.8619 148.341 24.6119 148.797 23.2537C149.251 21.8962 149.67 20.538 150.051 19.1799C150.2 18.6669 150.394 18.2897 150.634 18.0496C150.875 17.8095 151.243 17.6891 151.74 17.6891C152.187 17.6891 152.551 17.7638 152.833 17.9125C153.115 18.0618 153.272 18.1532 153.305 18.186C153.172 18.7325 152.941 19.4869 152.609 20.4466C152.278 21.407 151.905 22.4465 151.492 23.564C151.077 24.682 150.638 25.8246 150.175 26.9922C149.711 28.1598 149.272 29.2155 148.859 30.1597H145.927C145.794 29.8115 145.617 29.3024 145.393 28.6316C145.17 27.9609 144.925 27.2278 144.66 26.4335C144.395 25.6385 144.135 24.823 143.878 23.9862C143.621 23.1501 143.385 22.3841 143.17 21.6883C142.955 22.3841 142.718 23.1501 142.462 23.9862C142.205 24.823 141.949 25.6385 141.692 26.4335C141.435 27.2278 141.199 27.9609 140.984 28.6316C140.769 29.3024 140.594 29.8115 140.462 30.1597H137.531ZM129.806 30.1597V23.3033C129.806 21.929 129.462 20.8605 128.775 20.099C128.088 19.3376 127.048 18.9559 125.657 18.9559C124.266 18.9559 123.231 19.3376 122.552 20.099C121.873 20.8605 121.534 21.929 121.534 23.3033V30.1597H119.894V22.8064C119.894 22.0281 120.027 21.3156 120.291 20.67C120.557 20.0244 120.938 19.4695 121.434 19.0054C121.931 18.5426 122.535 18.1822 123.248 17.9253C123.96 17.6685 124.763 17.5404 125.657 17.5404C126.552 17.5404 127.359 17.6685 128.079 17.9253C128.8 18.1822 129.408 18.5426 129.905 19.0054C130.402 19.4695 130.783 20.0244 131.048 20.67C131.313 21.3156 131.445 22.0281 131.445 22.8064V30.1597H129.806ZM116.044 24.0235C116.044 23.3116 115.928 22.6448 115.696 22.0236C115.464 21.4031 115.133 20.8605 114.702 20.3971C114.272 19.9336 113.759 19.5732 113.163 19.3163C112.566 19.0595 111.904 18.9314 111.175 18.9314C110.446 18.9314 109.784 19.0595 109.188 19.3163C108.591 19.5732 108.078 19.9336 107.648 20.3971C107.216 20.8605 106.886 21.4031 106.654 22.0236C106.422 22.6448 106.306 23.3116 106.306 24.0235C106.306 24.7194 106.426 25.3772 106.667 25.9984C106.906 26.6195 107.238 27.1576 107.66 27.6133C108.082 28.0691 108.591 28.4295 109.188 28.6941C109.784 28.9586 110.446 29.0912 111.175 29.0912C111.904 29.0912 112.566 28.9586 113.163 28.6941C113.759 28.4295 114.272 28.0691 114.702 27.6133C115.133 27.1576 115.464 26.6195 115.696 25.9984C115.928 25.3772 116.044 24.7194 116.044 24.0235ZM117.808 24.0235C117.808 24.9183 117.642 25.7589 117.311 26.5448C116.979 27.3321 116.519 28.0189 115.932 28.6065C115.344 29.1949 114.644 29.6589 113.833 29.9982C113.022 30.3367 112.135 30.5073 111.175 30.5073C110.215 30.5073 109.328 30.3367 108.517 29.9982C107.706 29.6589 107.006 29.1949 106.418 28.6065C105.83 28.0189 105.37 27.3321 105.039 26.5448C104.708 25.7589 104.543 24.9183 104.543 24.0235C104.543 23.1134 104.708 22.2644 105.039 21.4772C105.37 20.6912 105.83 20.0038 106.418 19.4161C107.006 18.8284 107.706 18.3682 108.517 18.0373C109.328 17.7058 110.215 17.5404 111.175 17.5404C112.135 17.5404 113.022 17.7058 113.833 18.0373C114.644 18.3682 115.344 18.8284 115.932 19.4161C116.519 20.0038 116.979 20.6912 117.311 21.4772C117.642 22.2644 117.808 23.1134 117.808 24.0235ZM93.6374 23.3528C94.0184 23.3696 94.3821 23.3779 94.7303 23.3779H95.7737C96.6839 23.3779 97.4216 23.32 97.9848 23.2035C98.5474 23.0883 98.9863 22.9389 99.3011 22.7568C99.6152 22.5746 99.8225 22.368 99.9216 22.1356C100.021 21.9039 100.071 21.6638 100.071 21.4154C100.071 20.7865 99.8186 20.3147 99.3133 19.9993C98.808 19.6852 98.183 19.5275 97.4377 19.5275C96.8249 19.5275 96.2868 19.6356 95.8233 19.8506C95.3599 20.0656 94.9698 20.3514 94.6557 20.7073C94.3409 21.0639 94.097 21.4733 93.9232 21.9367C93.7494 22.4008 93.6535 22.8727 93.6374 23.3528ZM102.357 29.2406C102.224 29.3236 102.017 29.4388 101.735 29.5881C101.454 29.7368 101.102 29.8778 100.68 30.0104C100.258 30.143 99.7684 30.2589 99.2142 30.358C98.6587 30.4571 98.0504 30.5073 97.3887 30.5073C96.4606 30.5073 95.5954 30.3664 94.7928 30.0844C93.9888 29.8031 93.2853 29.3854 92.6809 28.8305C92.0765 28.2757 91.6001 27.5966 91.2525 26.7933C90.905 25.9906 90.7305 25.0669 90.7305 24.0235C90.7305 23.0297 90.9005 22.1234 91.2397 21.304C91.5795 20.484 92.0514 19.7804 92.6558 19.1921C93.2608 18.6044 93.9727 18.1487 94.7928 17.8256C95.6122 17.5031 96.5101 17.3415 97.4879 17.3415C98.3485 17.3415 99.1106 17.4535 99.7729 17.6769C100.435 17.9002 100.994 18.1989 101.45 18.5709C101.905 18.9436 102.249 19.3788 102.481 19.875C102.712 20.3726 102.828 20.9024 102.828 21.4649C102.828 22.0449 102.72 22.5708 102.505 23.0426C102.29 23.5144 101.909 23.9206 101.363 24.2598C100.816 24.599 100.079 24.8642 99.1518 25.0541C98.2249 25.2452 97.0489 25.3405 95.6244 25.3405C95.2929 25.3405 94.9827 25.3367 94.693 25.3283C94.4034 25.3199 94.0925 25.307 93.7616 25.2909C93.8936 26.1355 94.3036 26.8184 94.991 27.3398C95.6785 27.8618 96.6594 28.1225 97.9346 28.1225C98.3652 28.1225 98.763 28.0897 99.1273 28.0234C99.491 27.9571 99.8186 27.874 100.108 27.7749C100.398 27.6751 100.646 27.576 100.854 27.4769C101.06 27.3771 101.213 27.3024 101.313 27.2529L102.357 29.2406ZM82.3099 16.9193C82.3099 16.0252 82.4342 15.2547 82.6826 14.6091C82.9311 13.9635 83.2825 13.4376 83.7383 13.0315C84.1933 12.6259 84.7321 12.3279 85.3526 12.1374C85.9737 11.9475 86.6573 11.8516 87.4021 11.8516C88.7602 11.8516 89.7206 12.0132 90.2838 12.3356C90.8464 12.6588 91.1283 13.0688 91.1283 13.5657C91.1283 13.8476 91.0498 14.0961 90.8921 14.3111C90.735 14.5261 90.5651 14.6921 90.3829 14.808C90.1184 14.5924 89.7579 14.4186 89.3029 14.286C88.8465 14.1534 88.3624 14.0871 87.8494 14.0871C86.8723 14.0871 86.1765 14.3355 85.7626 14.8325C85.3487 15.3294 85.1415 16.0336 85.1415 16.9444V17.6891H88.8677C89.4142 17.6891 89.7991 17.8011 90.0231 18.0245C90.2465 18.2478 90.3585 18.5748 90.3585 19.0054C90.3585 19.2874 90.3166 19.5481 90.2342 19.7881C90.1512 20.0289 90.0849 20.1982 90.0354 20.2973H85.1415V30.1597H82.3099V16.9193ZM76.522 24.5951C76.3566 24.5617 76.0463 24.5121 75.5906 24.4458C75.1348 24.3801 74.4519 24.3467 73.5411 24.3467C72.4147 24.3467 71.5953 24.5166 71.0822 24.8558C70.568 25.1957 70.3118 25.7293 70.3118 26.4586C70.3118 26.7566 70.3652 27.0295 70.4733 27.278C70.5808 27.5264 70.7668 27.7376 71.0327 27.9114C71.2972 28.0852 71.6571 28.2178 72.1128 28.3092C72.5679 28.3999 73.1349 28.4456 73.8147 28.4456C74.5761 28.4456 75.1805 28.4167 75.6279 28.3587C76.0753 28.3008 76.3726 28.2551 76.522 28.2216V24.5951ZM79.3291 30.1095C79.163 30.143 78.9023 30.1803 78.5463 30.2215C78.1904 30.2627 77.772 30.3039 77.2918 30.3458C76.8116 30.3869 76.2735 30.4243 75.6775 30.4571C75.0814 30.4906 74.4603 30.5073 73.8147 30.5073C72.5228 30.5073 71.4672 30.3953 70.6471 30.172C69.8277 29.948 69.1815 29.6506 68.7096 29.2772C68.2378 28.9046 67.9147 28.4746 67.7409 27.986C67.5671 27.4975 67.4796 26.9967 67.4796 26.483C67.4796 25.804 67.5832 25.2079 67.7898 24.6943C67.9977 24.1812 68.337 23.7506 68.8094 23.403C69.2812 23.0548 69.8972 22.7941 70.66 22.6203C71.4208 22.4465 72.3484 22.359 73.442 22.359C74.0708 22.359 74.6669 22.3802 75.2301 22.4214C75.7933 22.4633 76.2156 22.5006 76.4969 22.5334C76.4969 21.9541 76.4016 21.4733 76.2117 21.0922C76.0212 20.7118 75.7599 20.4138 75.429 20.1982C75.0975 19.9832 74.7004 19.8338 74.2369 19.7515C73.7728 19.6684 73.2598 19.6266 72.6966 19.6266C71.753 19.6266 70.9947 19.7347 70.4238 19.9497C69.8522 20.1653 69.4756 20.3475 69.2935 20.4962C69.1937 20.4138 69.0572 20.2561 68.8834 20.0244C68.7097 19.7927 68.6228 19.5114 68.6228 19.1799C68.6228 18.9481 68.6845 18.7203 68.8094 18.4963C68.933 18.2729 69.1525 18.074 69.4673 17.9002C69.7814 17.7264 70.2036 17.59 70.734 17.4902C71.2638 17.3911 71.9345 17.3415 72.7462 17.3415C73.7233 17.3415 74.6128 17.4368 75.4168 17.6267C76.2194 17.8178 76.9108 18.1197 77.4907 18.5336C78.07 18.9481 78.5219 19.4946 78.8444 20.1731C79.1675 20.8528 79.3291 21.6728 79.3291 22.6326V30.1095ZM51.9051 26.2597C52.0873 26.3923 52.3602 26.5538 52.7245 26.7437C53.0889 26.9343 53.5401 27.1248 54.0782 27.3153C54.6163 27.5058 55.2297 27.6674 55.9165 27.8C56.604 27.932 57.3532 27.9983 58.1649 27.9983C59.6061 27.9983 60.6366 27.7871 61.2578 27.3649C61.8783 26.9426 62.1885 26.3421 62.1885 25.5639C62.1885 25.1828 62.1184 24.8603 61.9781 24.5951C61.8365 24.3299 61.6298 24.1027 61.3569 23.9122C61.084 23.7217 60.7525 23.5685 60.3631 23.4526C59.9737 23.3367 59.5308 23.237 59.0339 23.1546L56.3015 22.6577C55.6063 22.5418 54.9356 22.368 54.29 22.1356C53.6437 21.9039 53.0728 21.5982 52.5759 21.2171C52.0789 20.8361 51.6811 20.3681 51.3831 19.8132C51.0851 19.2584 50.9364 18.5915 50.9364 17.8133C50.9364 17.1182 51.0639 16.4558 51.3207 15.8263C51.5775 15.1968 51.9875 14.6503 52.5508 14.1869C53.1133 13.7228 53.8259 13.3546 54.6871 13.081C55.5477 12.8081 56.5911 12.6716 57.8167 12.6716C58.7114 12.6716 59.4896 12.7212 60.1519 12.8203C60.8143 12.9201 61.3775 13.0398 61.841 13.1808C62.3051 13.3211 62.6777 13.4666 62.9597 13.6153C63.2403 13.7646 63.4469 13.8805 63.5802 13.9635C63.8454 14.1457 64.0597 14.3439 64.2258 14.5589C64.3912 14.7745 64.4743 15.023 64.4743 15.3043C64.4743 15.686 64.3584 16.0374 64.1267 16.3599C63.8949 16.683 63.6793 16.9115 63.4804 17.0435C63.3317 16.8781 63.0955 16.6921 62.7724 16.4841C62.4499 16.2775 62.0521 16.0831 61.5803 15.901C61.1085 15.7188 60.5575 15.5611 59.9286 15.4285C59.2991 15.2966 58.6123 15.2303 57.8669 15.2303C57.1215 15.2303 56.4965 15.2882 55.9912 15.4041C55.4859 15.5199 55.0843 15.6815 54.7862 15.8881C54.4882 16.0954 54.2726 16.3438 54.1406 16.6335C54.0074 16.9238 53.9417 17.2508 53.9417 17.6144C53.9417 18.2446 54.1863 18.737 54.6749 19.093C55.1628 19.4489 55.979 19.7347 57.1215 19.9497L59.9035 20.4711C61.7084 20.8026 63.0665 21.3452 63.978 22.0983C64.8881 22.8527 65.3439 23.9412 65.3439 25.365C65.3439 26.1599 65.1862 26.877 64.872 27.5142C64.5573 28.1515 64.0971 28.7024 63.4933 29.1659C62.8882 29.6293 62.1351 29.9859 61.2327 30.2338C60.3302 30.4822 59.2907 30.6064 58.1147 30.6064C57.1215 30.6064 56.2101 30.5279 55.3823 30.3702C54.5545 30.2132 53.8175 30.0226 53.1713 29.7993C52.5256 29.5759 51.9875 29.3481 51.5576 29.1157C51.1263 28.8846 50.8115 28.7024 50.6133 28.5692L51.9051 26.2597ZM192.407 17.7908C192.407 17.0866 192.887 16.3773 193.674 16.3773C194.499 16.3773 194.879 17.0995 194.901 17.7908H192.407ZM187.844 20.529C187.519 20.529 187.285 20.4859 187.043 20.4054V16.7345C187.275 16.6393 187.542 16.5311 187.949 16.5311C189.06 16.5311 189.729 17.4085 189.729 18.4139C189.729 19.606 188.927 20.529 187.844 20.529ZM196.583 18.4673C196.583 16.4758 195.447 15.1607 193.712 15.1607C192.45 15.1607 191.545 15.8797 191.102 16.9257C190.614 15.7465 189.483 15.1607 188.293 15.1607C187.813 15.1607 187.421 15.2438 187.043 15.3493V12.1258H185.414V21.3967C185.947 21.6934 186.664 21.8569 187.529 21.8569C189.058 21.8569 190.408 21.1354 191.016 19.8551C191.409 20.9944 192.354 21.8569 193.984 21.8569C194.742 21.8569 195.598 21.6529 196.317 21.1553L195.92 20.1061C195.364 20.4054 194.869 20.5567 194.257 20.5567C193.261 20.5567 192.477 19.8898 192.45 18.9449H196.583V18.4673ZM184.272 21.7539C183.79 21.7539 183.412 21.3767 183.412 20.8811C183.412 20.3752 183.79 19.9961 184.272 19.9961C184.746 19.9961 185.125 20.3752 185.125 20.8811C185.125 21.3767 184.746 21.7539 184.272 21.7539Z" fill="#5B5A5F"/>
<path d="M36.4951 9.72342L18.248 23.7036L0 9.72361C-8.17889e-06 4.35234 8.16962 0.000326589 18.2478 4.5787e-05C28.3228 -0.000202241 36.4946 4.35255 36.4951 9.72342Z" fill="#D8D900"/>
<path d="M18.248 23.7036L2.93557e-05 37.6861L0 9.72361L18.248 23.7036Z" fill="#9AC014"/>
<path d="M36.4948 37.6863C36.4948 39.2478 35.9013 40.8191 34.7092 42.0111C32.3482 44.3619 24.8983 51.8124 22.5469 54.1709C21.3632 55.3578 19.7991 55.9487 18.2478 55.9487C16.6856 55.9487 15.1317 55.3578 13.948 54.1709C11.8181 52.0461 4.36043 44.5781 1.778 42.0009C0.585904 40.8094 2.93557e-05 39.2477 2.93557e-05 37.6861L18.248 23.7036L36.4948 37.6863Z" fill="#55AD2E"/>
<path d="M36.4951 9.72342L36.4948 37.6863L18.248 23.7036L36.4951 9.72342Z" fill="#9AC014"/>
</g>
<defs>
<clipPath id="clip0_8064_160575">
<rect width="196.966" height="56" fill="white"/>
</clipPath>
</defs>
</svg>
