<svg width="75" height="75" viewBox="0 0 75 75" fill="none" xmlns="http://www.w3.org/2000/svg">
<g opacity="0.75" filter="url(#filter0_f_7636_445395)">
<g clip-path="url(#clip0_7636_445395)">
<rect x="37.625" y="20" width="12.2855" height="12.2855" transform="rotate(45 37.625 20)" fill="#B0F099"/>
<rect x="46.3125" y="28.6872" width="12.2855" height="12.2855" transform="rotate(45 46.3125 28.6872)" fill="#53B046"/>
<rect x="28.9375" y="28.6872" width="12.2855" height="12.2855" transform="rotate(45 28.9375 28.6872)" fill="#53B046"/>
<rect x="37.625" y="37.3743" width="12.2855" height="12.2855" transform="rotate(45 37.625 37.3743)" fill="#1AAC92"/>
</g>
</g>
<g clip-path="url(#clip1_7636_445395)">
<rect x="37.625" y="20" width="12.2855" height="12.2855" transform="rotate(45 37.625 20)" fill="#D8D900"/>
<rect x="46.3125" y="28.6872" width="12.2855" height="12.2855" transform="rotate(45 46.3125 28.6872)" fill="#9AC014"/>
<rect x="28.9375" y="28.6872" width="12.2855" height="12.2855" transform="rotate(45 28.9375 28.6872)" fill="#9AC014"/>
<rect x="37.625" y="37.3743" width="12.2855" height="12.2855" transform="rotate(45 37.625 37.3743)" fill="#55AD2E"/>
</g>
<defs>
<filter id="filter0_f_7636_445395" x="0.25" y="0" width="74.75" height="74.7485" filterUnits="userSpaceOnUse" color-interpolation-filters="sRGB">
<feFlood flood-opacity="0" result="BackgroundImageFix"/>
<feBlend mode="normal" in="SourceGraphic" in2="BackgroundImageFix" result="shape"/>
<feGaussianBlur stdDeviation="10" result="effect1_foregroundBlur_7636_445395"/>
</filter>
<clipPath id="clip0_7636_445395">
<rect x="37.625" y="20" width="24.5709" height="24.5709" rx="8" transform="rotate(45 37.625 20)" fill="white"/>
</clipPath>
<clipPath id="clip1_7636_445395">
<rect x="37.625" y="20" width="24.5709" height="24.5709" rx="8" transform="rotate(45 37.625 20)" fill="white"/>
</clipPath>
</defs>
</svg>
