<svg width="97" height="30" viewBox="0 0 97 30" fill="none" xmlns="http://www.w3.org/2000/svg">
<g clip-path="url(#clip0_5897_208402)">
<path d="M28.5959 13.9959C28.6885 14.062 28.8337 14.1546 29.0319 14.2471C29.2304 14.3527 29.4681 14.4453 29.7455 14.5509C30.0362 14.6566 30.3535 14.736 30.7237 14.8021C31.0805 14.8682 31.4769 14.9077 31.9132 14.9077C32.6794 14.9077 33.2213 14.8021 33.5517 14.5774C33.882 14.3527 34.0406 14.0355 34.0406 13.6257C34.0406 13.4275 34.001 13.2558 33.935 13.1103C33.8558 12.9651 33.7499 12.846 33.6046 12.7535C33.4591 12.6479 33.2874 12.5687 33.0761 12.5157C32.8645 12.4497 32.6398 12.3967 32.3756 12.3571L30.935 12.0929C30.5651 12.0268 30.2083 11.9342 29.8779 11.8152C29.5342 11.6965 29.2304 11.5245 28.9658 11.3263C28.7016 11.1281 28.4903 10.8769 28.3317 10.5862C28.173 10.2954 28.0936 9.9386 28.0936 9.52913C28.0936 9.15892 28.1596 8.8152 28.2918 8.48488C28.4242 8.15456 28.6486 7.86381 28.9396 7.61264C29.2304 7.36147 29.6134 7.17669 30.0627 7.03116C30.5121 6.88594 31.0671 6.81988 31.7146 6.81988C32.1905 6.81988 32.6003 6.84637 32.9437 6.89903C33.2874 6.95201 33.5916 7.01807 33.8424 7.08413C34.0936 7.16328 34.2787 7.22935 34.4373 7.30881C34.5825 7.38796 34.6882 7.45403 34.7676 7.49392C34.9128 7.58615 35.0188 7.69211 35.1113 7.81084C35.2036 7.92988 35.2435 8.06201 35.2435 8.20754C35.2435 8.40573 35.1774 8.59083 35.0584 8.76254C34.9393 8.93424 34.8206 9.05328 34.7146 9.11935C34.6355 9.02679 34.5164 8.93424 34.3447 8.8286C34.1727 8.72296 33.9614 8.61701 33.7103 8.52445C33.4591 8.43222 33.1684 8.33966 32.838 8.2736C32.5077 8.20754 32.1375 8.16764 31.7545 8.16764C31.3578 8.16764 31.0275 8.19413 30.7633 8.2602C30.499 8.32626 30.2874 8.40573 30.1288 8.51137C29.9702 8.61701 29.8514 8.74913 29.7854 8.90775C29.7193 9.06637 29.6794 9.23839 29.6794 9.42317C29.6794 9.75381 29.8116 10.0181 30.0627 10.2029C30.3139 10.388 30.7502 10.5466 31.3578 10.6522L32.825 10.9299C33.7763 11.1016 34.49 11.3923 34.9789 11.789C35.4547 12.1854 35.7059 12.7669 35.7059 13.5201C35.7059 13.943 35.6264 14.3132 35.4547 14.6566C35.283 14.9869 35.045 15.291 34.728 15.5288C34.4108 15.78 34.0144 15.9651 33.5386 16.0972C33.0627 16.2293 32.5077 16.2954 31.8867 16.2954C31.3578 16.2954 30.8823 16.2558 30.446 16.1764C30.0101 16.0972 29.6134 15.9916 29.283 15.8725C28.9396 15.7535 28.662 15.6348 28.4242 15.5157C28.1995 15.3967 28.0275 15.291 27.9219 15.225L28.5959 13.9959Z" fill="#5C5B60"/>
<path d="M43.0924 16.0303C42.9998 16.0434 42.8677 16.0699 42.6826 16.083C42.4978 16.1095 42.2731 16.1229 42.022 16.1494C41.7708 16.1755 41.48 16.1889 41.1628 16.202C40.8456 16.2154 40.5153 16.2285 40.1849 16.2285C39.4978 16.2285 38.9425 16.1755 38.5065 16.0568C38.0703 15.9378 37.7268 15.7792 37.4757 15.581C37.2245 15.3828 37.0528 15.1581 36.9603 14.8938C36.8677 14.6427 36.8281 14.365 36.8281 14.1007C36.8281 13.7439 36.8811 13.4267 36.9867 13.1494C37.0924 12.8717 37.2775 12.647 37.5287 12.4619C37.7798 12.2771 38.0967 12.145 38.5065 12.0525C38.9029 11.9599 39.4053 11.9203 39.9733 11.9203C40.304 11.9203 40.6209 11.9334 40.925 11.9599C41.2289 11.9864 41.4405 11.9995 41.5991 12.0126C41.5991 11.7087 41.5461 11.4576 41.4536 11.2463C41.3479 11.0481 41.2158 10.8895 41.0438 10.7704C40.8721 10.6514 40.6608 10.5722 40.4096 10.5327C40.1584 10.4928 39.8942 10.4666 39.59 10.4666C39.088 10.4666 38.6916 10.5193 38.3875 10.6383C38.0837 10.7573 37.8855 10.8496 37.7929 10.929C37.7399 10.8895 37.6739 10.7969 37.5813 10.6779C37.4888 10.5588 37.4492 10.4136 37.4492 10.2285C37.4492 10.1098 37.4757 9.99075 37.5417 9.87171C37.6078 9.75298 37.7268 9.64703 37.8855 9.55447C38.0572 9.46224 38.2688 9.39585 38.5595 9.3432C38.8368 9.29022 39.1937 9.26373 39.6299 9.26373C40.1454 9.26373 40.6209 9.31671 41.0438 9.40926C41.467 9.5149 41.8368 9.67352 42.1407 9.88511C42.4448 10.1098 42.6826 10.3871 42.8546 10.7573C43.0263 11.1142 43.1055 11.5501 43.1055 12.0525V16.0303H43.0924ZM41.5991 13.1229C41.5065 13.1095 41.3479 13.0833 41.1101 13.0434C40.8721 13.0038 40.5153 12.9907 40.0263 12.9907C39.4317 12.9907 38.9955 13.0833 38.7312 13.255C38.4536 13.4401 38.3214 13.7175 38.3214 14.1007C38.3214 14.2594 38.3479 14.4049 38.4009 14.537C38.4536 14.6692 38.5595 14.7748 38.6916 14.8673C38.8368 14.9599 39.022 15.026 39.2597 15.0786C39.4978 15.1316 39.8016 15.1447 40.1584 15.1447C40.5548 15.1447 40.8855 15.1316 41.1101 15.1051C41.3479 15.0786 41.5065 15.0525 41.5857 15.039V13.1229H41.5991Z" fill="#5C5B60"/>
<path d="M44.668 9.06559C44.668 8.58973 44.734 8.18027 44.8662 7.84963C44.9983 7.50622 45.1834 7.22856 45.4212 7.01729C45.6593 6.80569 45.95 6.64708 46.2803 6.54144C46.6106 6.4358 46.9674 6.39591 47.3638 6.39591C48.0778 6.39591 48.5929 6.47537 48.8839 6.64707C49.1744 6.81878 49.333 7.03037 49.333 7.29463C49.333 7.44016 49.2934 7.57229 49.2143 7.69101C49.1348 7.81005 49.0422 7.88952 48.95 7.95559C48.8045 7.83654 48.6194 7.74399 48.3816 7.67793C48.1438 7.61186 47.8792 7.57229 47.615 7.57229C47.0996 7.57229 46.7297 7.70442 46.5181 7.96867C46.2934 8.23293 46.1878 8.60314 46.1878 9.07867V9.47537H48.1569C48.4477 9.47537 48.6458 9.52803 48.7649 9.64707C48.8839 9.76612 48.9366 9.93782 48.9366 10.1625C48.9366 10.3077 48.9101 10.4532 48.8705 10.5723C48.8309 10.7044 48.7914 10.7836 48.7649 10.8365H46.1747V16.0435H44.6811V9.06559H44.668Z" fill="#5C5B60"/>
<path d="M55.2507 15.5706C55.1846 15.6102 55.0656 15.6762 54.9204 15.7557C54.7748 15.8348 54.59 15.9143 54.3654 15.9804C54.1407 16.0464 53.8895 16.1125 53.5857 16.1655C53.2949 16.2181 52.9643 16.2446 52.6209 16.2446C52.132 16.2446 51.6692 16.1655 51.2463 16.0199C50.8235 15.8747 50.4536 15.6501 50.1363 15.3593C49.8191 15.0686 49.5679 14.7118 49.3831 14.2886C49.198 13.8657 49.1055 13.3768 49.1055 12.8218C49.1055 12.2932 49.198 11.8174 49.3697 11.3811C49.5548 10.9452 49.806 10.5753 50.1232 10.2711C50.4401 9.95389 50.8235 9.71612 51.2463 9.54442C51.6826 9.3724 52.1581 9.29325 52.6736 9.29325C53.1229 9.29325 53.5327 9.34591 53.8764 9.46495C54.2198 9.58399 54.524 9.74261 54.7617 9.9408C54.9995 10.139 55.1846 10.3637 55.3037 10.6279C55.4227 10.8922 55.4888 11.1698 55.4888 11.4737C55.4888 11.7778 55.4358 12.0552 55.3167 12.3063C55.198 12.5575 54.9995 12.7688 54.7088 12.9539C54.418 13.139 54.035 13.2711 53.5461 13.3768C53.0569 13.4827 52.4358 13.5223 51.6826 13.5223C51.5106 13.5223 51.3389 13.5223 51.1937 13.5089C51.035 13.5089 50.8764 13.4958 50.7047 13.4958C50.7708 13.9452 50.9955 14.302 51.3523 14.5793C51.7091 14.857 52.2376 14.9891 52.9116 14.9891C53.1363 14.9891 53.3476 14.976 53.5461 14.9364C53.7443 14.8965 53.916 14.857 54.0612 14.804C54.2198 14.7513 54.3389 14.6984 54.4579 14.6457L54.6957 14.5267L55.2507 15.5706ZM50.6517 12.4649C50.8499 12.478 51.0481 12.478 51.2332 12.478H51.7882C52.2641 12.478 52.6605 12.4519 52.9512 12.3858C53.242 12.3197 53.4797 12.2403 53.6517 12.1477C53.8234 12.0552 53.9291 11.9364 53.9821 11.8174C54.035 11.6984 54.0612 11.5662 54.0612 11.4341C54.0612 11.1038 53.9291 10.8526 53.6648 10.6809C53.4006 10.5089 53.0703 10.4297 52.6736 10.4297C52.3566 10.4297 52.0659 10.4827 51.8147 10.6014C51.5636 10.7205 51.3654 10.866 51.1937 11.0508C51.0216 11.2359 50.9029 11.4606 50.8104 11.6984C50.7047 11.9626 50.6517 12.2138 50.6517 12.4649Z" fill="#5C5B60"/>
<path d="M63.4184 12.8218C63.4184 13.2976 63.3259 13.7336 63.1542 14.1564C62.9821 14.5662 62.7313 14.9364 62.4271 15.2403C62.1233 15.5575 61.7531 15.7953 61.3171 15.9804C60.8943 16.1655 60.4184 16.2446 59.9161 16.2446C59.4141 16.2446 58.9382 16.1521 58.5153 15.9804C58.0794 15.7953 57.7222 15.5575 57.4053 15.2403C57.0881 14.9364 56.8503 14.5662 56.6783 14.1564C56.5066 13.747 56.4141 13.2976 56.4141 12.8218C56.4141 12.3459 56.5066 11.8965 56.6783 11.4737C56.8503 11.0642 57.1012 10.694 57.4053 10.3902C57.7092 10.086 58.0794 9.83516 58.5153 9.66314C58.9382 9.49144 59.4141 9.39888 59.9161 9.39888C60.4184 9.39888 60.8943 9.49144 61.3171 9.66314C61.74 9.83516 62.1099 10.086 62.4271 10.3902C62.7444 10.7074 62.9821 11.0642 63.1542 11.4737C63.339 11.8835 63.4184 12.3328 63.4184 12.8218ZM62.4932 12.8218C62.4932 12.4519 62.4271 12.0951 62.3081 11.7644C62.1894 11.4341 62.0043 11.1568 61.7796 10.9056C61.5549 10.6544 61.2776 10.4693 60.9603 10.3372C60.6431 10.2051 60.2994 10.139 59.9161 10.139C59.5331 10.139 59.1763 10.2051 58.8721 10.3372C58.5549 10.4693 58.2907 10.6675 58.0529 10.9056C57.8282 11.1568 57.6431 11.4341 57.5241 11.7644C57.4053 12.0951 57.3393 12.4385 57.3393 12.8218C57.3393 13.192 57.4053 13.5354 57.5241 13.8657C57.6565 14.1963 57.8282 14.4737 58.0529 14.7248C58.2776 14.9626 58.5418 15.1608 58.8591 15.2932C59.1763 15.4385 59.5197 15.5045 59.903 15.5045C60.2863 15.5045 60.6431 15.4385 60.9469 15.2932C61.2642 15.1477 61.5284 14.9626 61.7665 14.7248C61.9912 14.4871 62.1629 14.1963 62.295 13.8657C62.4271 13.5354 62.4932 13.192 62.4932 12.8218Z" fill="#5C5B60"/>
<path d="M69.7621 16.0596V12.4385C69.7621 11.7115 69.5773 11.1434 69.2205 10.747C68.8637 10.3503 68.3084 10.139 67.5683 10.139C66.8285 10.139 66.2866 10.3372 65.9298 10.747C65.573 11.1565 65.3879 11.7115 65.3879 12.4385V16.0596H64.5156V12.1743C64.5156 11.7645 64.5817 11.3812 64.7272 11.0508C64.8724 10.7071 65.0706 10.4164 65.3349 10.1655C65.5995 9.91436 65.9164 9.72925 66.2866 9.59712C66.6565 9.465 67.0927 9.39893 67.5552 9.39893C68.0176 9.39893 68.4539 9.465 68.8372 9.59712C69.2205 9.72925 69.5374 9.92744 69.802 10.1655C70.0663 10.4164 70.2645 10.7071 70.4097 11.0508C70.5552 11.3946 70.6213 11.7645 70.6213 12.1743V16.0596H69.7621Z" fill="#5C5B60"/>
<path d="M73.8457 16.0592C73.4228 15.0548 73.066 14.1957 72.7883 13.4951C72.5107 12.7949 72.2994 12.2134 72.1277 11.7507C71.9557 11.2882 71.85 10.9314 71.784 10.6936C71.7179 10.4425 71.6914 10.2705 71.6914 10.1648C71.6914 9.97971 71.7575 9.82141 71.8765 9.67588C71.9952 9.53067 72.1934 9.46429 72.4446 9.46429C72.6428 9.46429 72.7883 9.47769 72.894 9.51727C72.9999 9.55684 73.0791 9.58333 73.1056 9.59673C73.2112 9.97971 73.3302 10.3895 73.4624 10.8258C73.5945 11.2617 73.7266 11.6846 73.8722 12.1209C74.0174 12.5438 74.1495 12.9532 74.2816 13.3499C74.4138 13.7332 74.5328 14.09 74.6384 14.3939C74.731 14.1296 74.8366 13.8124 74.9426 13.4556C75.0482 13.1118 75.1673 12.7419 75.286 12.3717C75.405 12.0018 75.5241 11.6185 75.6297 11.2486C75.7488 10.8654 75.8544 10.5085 75.9469 10.1648C76.013 9.94014 76.1186 9.76844 76.2377 9.64939C76.3698 9.53067 76.568 9.47769 76.8457 9.47769C77.0174 9.47769 77.176 9.50418 77.3212 9.54375C77.4667 9.59673 77.5459 9.6229 77.5855 9.63631C77.7045 10.0327 77.8235 10.4425 77.9557 10.8784C78.0878 11.3147 78.2199 11.7376 78.352 12.1605C78.4842 12.5833 78.6163 12.9797 78.7353 13.363C78.8675 13.7463 78.9731 14.09 79.0791 14.3939C79.3037 13.7859 79.5415 13.1252 79.7793 12.4116C80.0174 11.698 80.2421 10.971 80.4402 10.2574C80.5194 9.97971 80.625 9.78152 80.7441 9.6628C80.8762 9.53067 81.0613 9.47769 81.3256 9.47769C81.5636 9.47769 81.7484 9.51727 81.9071 9.59673C82.0526 9.67588 82.1451 9.72886 82.1582 9.74195C82.0922 10.0327 81.96 10.4291 81.7883 10.9314C81.6163 11.4334 81.4181 11.9888 81.1934 12.5833C80.9687 13.1779 80.7441 13.7728 80.4929 14.3939C80.242 15.0149 80.0174 15.5699 79.7927 16.0723H78.2464C78.1803 15.8872 78.0878 15.6229 77.9687 15.2661C77.85 14.9093 77.7179 14.526 77.5855 14.1031C77.4402 13.6802 77.3081 13.2574 77.176 12.808C77.0439 12.3717 76.9117 11.9623 76.8058 11.5921C76.6871 11.9623 76.568 12.3586 76.4359 12.808C76.3038 13.244 76.1582 13.6802 76.0261 14.1031C75.894 14.526 75.7618 14.9093 75.6562 15.2661C75.5372 15.6229 75.4446 15.8872 75.3785 16.0723H73.8457V16.0592Z" fill="#5C5B60"/>
<path d="M88.3952 15.5706C88.3292 15.6102 88.2104 15.6762 88.0649 15.7557C87.9197 15.8348 87.7346 15.9143 87.5099 15.9804C87.2852 16.0464 87.034 16.1125 86.7302 16.1655C86.4395 16.2181 86.1092 16.2446 85.7654 16.2446C85.2765 16.2446 84.8137 16.1655 84.3909 16.0199C83.968 15.8747 83.5981 15.6501 83.2808 15.3593C82.9636 15.0686 82.7124 14.7118 82.5277 14.2886C82.3426 13.8657 82.25 13.3768 82.25 12.8218C82.25 12.2932 82.3426 11.8174 82.5143 11.3811C82.6994 10.9452 82.9371 10.5753 83.2678 10.2711C83.5847 9.95389 83.968 9.71612 84.3909 9.54442C84.8271 9.3724 85.303 9.29325 85.8181 9.29325C86.2674 9.29325 86.6772 9.34591 87.0209 9.46495C87.3644 9.58399 87.6685 9.74261 87.9063 9.9408C88.144 10.139 88.3291 10.3637 88.4482 10.6279C88.5669 10.8922 88.6333 11.1698 88.6333 11.4737C88.6333 11.7778 88.5803 12.0552 88.4613 12.3063C88.3425 12.5575 88.144 12.7688 87.8536 12.9539C87.5629 13.139 87.1796 13.2711 86.6906 13.3768C86.2014 13.4827 85.5803 13.5223 84.8271 13.5223C84.6551 13.5223 84.4834 13.5223 84.3382 13.5089C84.1796 13.5089 84.021 13.4958 83.8493 13.4958C83.9153 13.9452 84.14 14.302 84.4968 14.5793C84.8536 14.857 85.3821 14.9891 86.0562 14.9891C86.2808 14.9891 86.4921 14.976 86.6906 14.9364C86.8888 14.8965 87.0605 14.857 87.2057 14.804C87.3644 14.7513 87.4965 14.6984 87.6024 14.6457C87.7081 14.5927 87.7872 14.5531 87.8402 14.5267L88.3952 15.5706ZM83.7829 12.4649C83.9814 12.478 84.1796 12.478 84.3644 12.478H84.9197C85.3952 12.478 85.7919 12.4519 86.0827 12.3858C86.3865 12.3197 86.6112 12.2403 86.7829 12.1477C86.9549 12.0552 87.0605 11.9364 87.1135 11.8174C87.1662 11.6984 87.1927 11.5662 87.1927 11.4341C87.1927 11.1038 87.0605 10.8526 86.7963 10.6809C86.532 10.5089 86.2014 10.4297 85.805 10.4297C85.4747 10.4297 85.197 10.4827 84.9458 10.6014C84.695 10.7205 84.4968 10.866 84.3248 11.0508C84.1531 11.2359 84.034 11.4606 83.9415 11.6984C83.8358 11.9626 83.7963 12.2138 83.7829 12.4649Z" fill="#5C5B60"/>
<path d="M89.5977 7.08633C89.5977 6.84825 89.6637 6.67654 89.8093 6.5575C89.9545 6.43846 90.1396 6.3858 90.4038 6.3858C90.5624 6.3858 90.7077 6.39888 90.8401 6.43846C90.9722 6.47835 91.0645 6.50484 91.1044 6.51793V10.2845C91.329 10.0069 91.6198 9.7691 92.0162 9.57059C92.3995 9.3724 92.8488 9.27984 93.3378 9.27984C93.8136 9.27984 94.2627 9.35931 94.6724 9.53101C95.0822 9.70303 95.439 9.9408 95.7429 10.258C96.047 10.5753 96.2848 10.9321 96.4565 11.3549C96.6285 11.7778 96.7077 12.2403 96.7077 12.7557C96.7077 13.258 96.6151 13.7205 96.4434 14.1434C96.2717 14.5662 96.0205 14.9364 95.7033 15.2534C95.3861 15.5575 95.0162 15.7953 94.5799 15.9804C94.1439 16.1521 93.6681 16.2446 93.1527 16.2446C92.6372 16.2446 92.1614 16.1655 91.7254 16.0069C91.2891 15.8482 90.9193 15.6102 90.602 15.2932C90.2848 14.976 90.047 14.5793 89.8619 14.1169C89.6902 13.641 89.5977 13.086 89.5977 12.4519V7.08633ZM93.1131 14.8965C93.4169 14.8965 93.6812 14.8439 93.9323 14.7379C94.1835 14.6323 94.3948 14.4737 94.5799 14.2886C94.765 14.1038 94.8971 13.8791 94.9897 13.6148C95.0822 13.3637 95.1349 13.0729 95.1349 12.7688C95.1349 12.4649 95.0822 12.1742 94.9897 11.9099C94.8971 11.6457 94.7519 11.421 94.5799 11.2359C94.3948 11.0508 94.1835 10.9056 93.9323 10.7865C93.6812 10.6809 93.4038 10.6279 93.1131 10.6279C92.8089 10.6279 92.5316 10.6809 92.2804 10.7865C92.0293 10.8922 91.818 11.0508 91.6463 11.2359C91.4743 11.4341 91.329 11.6588 91.2365 11.923C91.1309 12.1873 91.091 12.4649 91.091 12.7688C91.091 13.086 91.1439 13.3768 91.2365 13.641C91.3421 13.9056 91.4743 14.1303 91.6594 14.3151C91.8445 14.5002 92.0557 14.6457 92.3069 14.7513C92.5447 14.8439 92.8223 14.8965 93.1131 14.8965Z" fill="#5C5B60"/>
<path d="M20.0173 5.16707L10.3169 12.5944L0.616619 5.16726C0.616676 2.31252 4.96462 -1.19679e-05 10.3169 -0.000172973C15.6693 -0.000333979 20.0171 2.31253 20.0173 5.16707Z" fill="#D9DA00"/>
<path d="M10.3174 12.5958L0.617188 20.0361V5.16858L10.3174 12.5958Z" fill="#9CC213"/>
<path d="M20.0176 20.0374C20.0176 20.87 19.7007 21.7027 19.0662 22.3368C17.8107 23.5924 13.8459 27.5441 12.6038 28.7996C11.9693 29.4337 11.137 29.751 10.3174 29.751C9.48474 29.751 8.66549 29.4337 8.03102 28.7996C6.89453 27.6762 2.93006 23.6983 1.56857 22.3368C0.934422 21.6893 0.617188 20.8569 0.617188 20.0374L10.3174 12.6101L20.0176 20.0374Z" fill="#55AE2E"/>
<path d="M20.0205 5.16858V20.0361L10.3203 12.5958L20.0205 5.16858Z" fill="#9CC213"/>
</g>
<defs>
<clipPath id="clip0_5897_208402">
<rect width="96.383" height="30" fill="white" transform="translate(0.617188)"/>
</clipPath>
</defs>
</svg>
