<svg width="16" height="16" viewBox="0 0 16 16" fill="none" xmlns="http://www.w3.org/2000/svg">
<mask id="mask0_3896_39975" style="mask-type:luminance" maskUnits="userSpaceOnUse" x="0" y="0" width="16" height="16">
<rect width="16" height="16" fill="white"/>
</mask>
<g mask="url(#mask0_3896_39975)">
<path d="M22 1.62109H-5V3.5865H22V1.62109Z" fill="#F5F5F5"/>
<path d="M21.9999 5.55078H-5V7.51619H21.9999V5.55078Z" fill="#F5F5F5"/>
<path d="M21.9999 9.48242H-5V11.4478H21.9999V9.48242Z" fill="#F5F5F5"/>
<path d="M22 11.4492H-5V13.4146H22V11.4492Z" fill="#41479B"/>
<path d="M22 13.4141H-5V15.3795H22V13.4141Z" fill="#F5F5F5"/>
<path d="M-4.53446 17.3464H21.5345C21.7915 17.3464 22 17.138 22 16.8809V15.3809H-5V16.8809C-5 17.138 -4.79154 17.3464 -4.53446 17.3464Z" fill="#41479B"/>
<path d="M22 1.62181V0.121788C22 -0.135292 21.7915 -0.34375 21.5344 -0.34375H-4.53446C-4.79154 -0.343697 -5 -0.135292 -5 0.121788V3.58733V5.55278V9.48386H22V7.51835H4.31034V5.55284H22V3.58733H4.31034V1.62181H22Z" fill="#41479B"/>
<path d="M4.31034 3.58532H0.637927V-0.345703H-1.32759V3.58532H-5V5.55083H-1.32759V9.48186H0.637927V5.55083H4.31034V3.58532Z" fill="#F5F5F5"/>
</g>
</svg>
