<svg width="16" height="16" viewBox="0 0 16 16" fill="none" xmlns="http://www.w3.org/2000/svg">
<mask id="mask0_3896_40063" style="mask-type:luminance" maskUnits="userSpaceOnUse" x="0" y="0" width="16" height="16">
<rect width="16" height="16" fill="white"/>
</mask>
<g mask="url(#mask0_3896_40063)">
<path d="M-4.53251 17.344H21.5364C21.7935 17.344 22.002 17.1355 22.002 16.8784V0.119835C22.002 -0.137245 21.7935 -0.345703 21.5364 -0.345703H-4.53251C-4.78959 -0.34565 -4.99805 -0.137245 -4.99805 0.119835V16.8784C-4.99805 17.1356 -4.78959 17.344 -4.53251 17.344Z" fill="#C8414B"/>
<path d="M22.0019 3.37891H-4.99805V13.6204H22.0019V3.37891Z" fill="#FFD250"/>
<path d="M6.40494 8.49917L6.79966 6.72302C6.83605 6.55944 6.71154 6.4043 6.54395 6.4043H6.26594C6.0984 6.4043 5.97395 6.55944 6.01023 6.72302L6.40494 8.49917Z" fill="#C8414B"/>
<path d="M6.87048 7.56836H5.93945V11.525H6.87048V7.56836Z" fill="#F5F5F5"/>
<path d="M7.10359 7.10352H5.70703V7.56906H7.10359V7.10352Z" fill="#FAB446"/>
<path d="M7.10308 8.50195H4.77539V8.96749H7.10308V8.50195Z" fill="#C8414B"/>
<path d="M7.10359 10.3627L5.70703 9.89718V9.43164L7.10359 9.89718V10.3627Z" fill="#C8414B"/>
<path d="M1.05148 7.10352C0.794396 7.10352 0.585938 7.31197 0.585938 7.56905V10.5949C0.585938 11.1605 1.11381 12.2242 2.91352 12.2242C4.71324 12.2242 5.24111 11.1605 5.24111 10.5949V7.56905C5.24111 7.31197 5.03265 7.10352 4.77557 7.10352H1.05148Z" fill="#F5F5F5"/>
<path d="M2.91548 9.4311H0.587891V7.56905C0.587891 7.31197 0.796349 7.10352 1.05343 7.10352H2.91548V9.4311Z" fill="#C8414B"/>
<path d="M2.91602 9.43164H5.2436V10.5954C5.2436 11.2382 4.72259 11.7592 4.07981 11.7592C3.43703 11.7592 2.91602 11.2382 2.91602 10.5954V9.43164Z" fill="#C8414B"/>
<path d="M0.585938 9.43164H2.91352V10.5954C2.91352 11.2382 2.39251 11.7592 1.74973 11.7592C1.10695 11.7592 0.585938 11.2382 0.585938 10.5954V9.43164Z" fill="#FAB446"/>
<path d="M2.44601 11.5212V9.43164H1.98047V11.7358C2.15365 11.7006 2.31011 11.624 2.44601 11.5212Z" fill="#C8414B"/>
<path d="M1.51632 11.7358V9.43164H1.05078V11.5212C1.18673 11.624 1.34319 11.7006 1.51632 11.7358Z" fill="#C8414B"/>
<path d="M2.4493 8.5H1.05273V8.96554H2.4493V8.5Z" fill="#FFB441"/>
<path d="M2.4493 7.56836H1.05273V8.0339H2.4493V7.56836Z" fill="#FAB446"/>
<path d="M2.21423 7.8457H1.2832V8.68903H2.21423V7.8457Z" fill="#FAB446"/>
<path d="M0.121171 11.2949H-1.27539V11.7605H0.121171V11.2949Z" fill="#FAB446"/>
<path d="M0.121171 7.10352H-1.27539V7.56906H0.121171V7.10352Z" fill="#FAB446"/>
<path d="M0.354235 11.7578H-1.50781V12.2234H0.354235V11.7578Z" fill="#5064AA"/>
<path d="M7.33602 11.2949H5.93945V11.7605H7.33602V11.2949Z" fill="#FAB446"/>
<path d="M7.33666 11.7578H5.47461V12.2234H7.33666V11.7578Z" fill="#5064AA"/>
<path d="M4.3107 6.63867H1.51758V7.10421H4.3107V6.63867Z" fill="#FAB446"/>
<path d="M3.14718 5.24219H2.68164V6.63875H3.14718V5.24219Z" fill="#FFB441"/>
<path d="M2.4463 5.93948C2.06124 5.93948 1.74805 5.62624 1.74805 5.24122C1.74805 4.85616 2.06129 4.54297 2.4463 4.54297C2.83137 4.54297 3.14456 4.85621 3.14456 5.24122C3.14461 5.62624 2.83137 5.93948 2.4463 5.93948ZM2.4463 5.00846C2.31789 5.00846 2.21353 5.11276 2.21353 5.24122C2.21353 5.36963 2.31784 5.47399 2.4463 5.47399C2.57476 5.47399 2.67907 5.36968 2.67907 5.24122C2.67907 5.11282 2.57476 5.00846 2.4463 5.00846Z" fill="#F5F5F5"/>
<path d="M3.37794 5.93948C2.99288 5.93948 2.67969 5.62624 2.67969 5.24122C2.67969 4.85616 2.99293 4.54297 3.37794 4.54297C3.76301 4.54297 4.0762 4.85621 4.0762 5.24122C4.0762 5.62624 3.76295 5.93948 3.37794 5.93948ZM3.37794 5.00846C3.24953 5.00846 3.14517 5.11276 3.14517 5.24122C3.14517 5.36963 3.24948 5.47399 3.37794 5.47399C3.50635 5.47399 3.61071 5.36968 3.61071 5.24122C3.61066 5.11282 3.50635 5.00846 3.37794 5.00846Z" fill="#F5F5F5"/>
<path d="M4.30958 6.40627C3.92452 6.40627 3.61133 6.09303 3.61133 5.70802C3.61133 5.32295 3.92457 5.00977 4.30958 5.00977C4.69465 5.00977 5.00784 5.32301 5.00784 5.70802C5.00784 6.09303 4.69459 6.40627 4.30958 6.40627ZM4.30958 5.47525C4.18117 5.47525 4.07681 5.57956 4.07681 5.70802C4.07681 5.83643 4.18112 5.94079 4.30958 5.94079C4.43799 5.94079 4.54235 5.83648 4.54235 5.70802C4.54235 5.57956 4.43799 5.47525 4.30958 5.47525Z" fill="#F5F5F5"/>
<path d="M1.51661 6.40627C1.13155 6.40627 0.818359 6.09303 0.818359 5.70802C0.818359 5.32295 1.1316 5.00977 1.51661 5.00977C1.90168 5.00977 2.21487 5.32301 2.21487 5.70802C2.21492 6.09303 1.90168 6.40627 1.51661 6.40627ZM1.51661 5.47525C1.38821 5.47525 1.28384 5.57956 1.28384 5.70802C1.28384 5.83643 1.38815 5.94079 1.51661 5.94079C1.64507 5.94079 1.74938 5.83643 1.74938 5.70797C1.74938 5.57956 1.64507 5.47525 1.51661 5.47525Z" fill="#F5F5F5"/>
<path d="M4.31194 10.362V10.5947C4.31194 10.7231 4.20752 10.8275 4.07917 10.8275C3.95081 10.8275 3.8464 10.7231 3.8464 10.5947V10.362H4.31194ZM4.77742 9.89648H3.38086V10.5947C3.38086 10.9798 3.6941 11.293 4.07911 11.293C4.46418 11.293 4.77737 10.9798 4.77737 10.5947V9.89648H4.77742Z" fill="#FAB446"/>
<path d="M4.07882 8.96693C3.82174 8.96693 3.61328 8.75847 3.61328 8.50139V8.03585C3.61328 7.77877 3.82174 7.57031 4.07882 7.57031C4.3359 7.57031 4.54436 7.77877 4.54436 8.03585V8.50139C4.54436 8.75847 4.3359 8.96693 4.07882 8.96693Z" fill="#FFA0D2"/>
<path d="M2.91505 10.1289C3.30069 10.1289 3.61331 9.81631 3.61331 9.43068C3.61331 9.04504 3.30069 8.73242 2.91505 8.73242C2.52942 8.73242 2.2168 9.04504 2.2168 9.43068C2.2168 9.81631 2.52942 10.1289 2.91505 10.1289Z" fill="#5064AA"/>
<path d="M3.14718 4.31055H2.68164V5.70711H3.14718V4.31055Z" fill="#FAB446"/>
<path d="M1.51827 6.63875L1.05273 6.17321L1.32542 5.90052C1.74693 5.47902 2.31867 5.24219 2.91483 5.24219C3.511 5.24219 4.08269 5.47902 4.50425 5.90052L4.77694 6.17321L4.3114 6.63875H1.51827Z" fill="#C8414B"/>
<path d="M2.91441 6.40304C3.04296 6.40304 3.14718 6.29882 3.14718 6.17027C3.14718 6.04171 3.04296 5.9375 2.91441 5.9375C2.78585 5.9375 2.68164 6.04171 2.68164 6.17027C2.68164 6.29882 2.78585 6.40304 2.91441 6.40304Z" fill="#FFD250"/>
<path d="M1.98277 6.40304C2.11132 6.40304 2.21554 6.29882 2.21554 6.17027C2.21554 6.04171 2.11132 5.9375 1.98277 5.9375C1.85421 5.9375 1.75 6.04171 1.75 6.17027C1.75 6.29882 1.85421 6.40304 1.98277 6.40304Z" fill="#FFD250"/>
<path d="M3.8441 6.40304C3.97265 6.40304 4.07686 6.29882 4.07686 6.17027C4.07686 6.04171 3.97265 5.9375 3.8441 5.9375C3.71554 5.9375 3.61133 6.04171 3.61133 6.17027C3.61133 6.29882 3.71554 6.40304 3.8441 6.40304Z" fill="#FFD250"/>
<path d="M1.0523 8.5H-1.27539V8.96554H1.0523V8.5Z" fill="#C8414B"/>
<path d="M-1.27539 10.3607L0.121118 9.89523V9.42969L-1.27539 9.89523V10.3607Z" fill="#C8414B"/>
</g>
</svg>
