<svg width="16" height="16" viewBox="0 0 16 16" fill="none" xmlns="http://www.w3.org/2000/svg">
<mask id="mask0_3896_40051" style="mask-type:luminance" maskUnits="userSpaceOnUse" x="0" y="0" width="16" height="16">
<rect width="16" height="16" fill="white"/>
</mask>
<g mask="url(#mask0_3896_40051)">
<path d="M22 5.55089H-5V0.119835C-5 -0.137245 -4.79154 -0.345703 -4.53446 -0.345703H21.5345C21.7915 -0.345703 22 -0.137245 22 0.119835L22 5.55089Z" fill="#F5F5F5"/>
<path d="M21.5344 17.3458H-4.53446C-4.79154 17.3458 -5 17.1373 -5 16.8802V11.4492H21.9999V16.8802C21.9999 17.1373 21.7915 17.3458 21.5344 17.3458Z" fill="#FF4B55"/>
<path d="M21.9999 5.55078H-5V11.447H21.9999V5.55078Z" fill="#41479B"/>
<path d="M1.86813 12.8925C1.73034 12.8134 -1.50781 10.9299 -1.50781 8.03499V4.07812H5.47494V8.03499C5.47494 10.9299 2.2368 12.8134 2.099 12.8925L1.98357 12.9584L1.86813 12.8925Z" fill="#FF4B55"/>
<path d="M3.81195 7.33574L2.7146 7.48029H2.34889V6.82544H2.56831L3.44613 6.96998L3.32727 6.45967L3.44613 5.94936L2.56831 6.09385H2.34889V5.87269L2.49338 4.77539L1.98312 4.92405L1.47286 4.77539L1.61736 5.87269V6.09385H1.39782L0.520062 5.94936L0.638925 6.45967L0.520062 6.96998L1.39782 6.82544H1.61736V7.48029H1.25159L0.154297 7.33574L0.302902 7.846L0.154297 8.35631L1.25159 8.21177H1.61736V9.8961H2.34889V8.21177H2.7146L3.81195 8.35631L3.66334 7.846L3.81195 7.33574Z" fill="#F5F5F5"/>
<path d="M1.98289 9.19922C1.50206 9.19922 1.08968 9.49095 0.912281 9.90686C0.880957 9.90428 0.851004 9.89747 0.819099 9.89747C0.199419 9.89747 -0.302348 10.3832 -0.337891 10.9939C0.604735 12.1542 1.7854 12.8457 1.86746 12.8929L1.98289 12.9588L2.09833 12.8929C2.18038 12.8457 3.36105 12.1543 4.30368 10.9939C4.26813 10.3832 3.76637 9.89747 3.14668 9.89747C3.11478 9.89747 3.08483 9.90428 3.0535 9.90686C2.87611 9.49095 2.46372 9.19922 1.98289 9.19922Z" fill="#41479B"/>
<path d="M5.24057 4.31124C5.24057 4.31124 5.24057 7.10436 5.24057 8.03539C5.24057 10.8285 1.98196 12.6906 1.98196 12.6906C1.98196 12.6906 -1.27665 10.8285 -1.27665 8.03539C-1.27665 7.10436 -1.27665 4.31124 -1.27665 4.31124H5.24057ZM5.70605 3.8457H5.24052H-1.27665H-1.74219V4.31124V8.03539C-1.74219 11.0638 1.60839 13.0132 1.75098 13.0947L1.98196 13.2267L2.21294 13.0947C2.35558 13.0132 5.70611 11.0638 5.70611 8.03539V4.31124V3.8457H5.70605Z" fill="#F5F5F5"/>
</g>
</svg>
