<svg width="16" height="16" viewBox="0 0 16 16" fill="none" xmlns="http://www.w3.org/2000/svg">
<mask id="mask0_3896_40039" style="mask-type:luminance" maskUnits="userSpaceOnUse" x="0" y="0" width="16" height="16">
<rect width="16" height="16" fill="white"/>
</mask>
<g mask="url(#mask0_3896_40039)">
<path d="M21.5364 17.344H-4.53251C-4.78959 17.344 -4.99805 17.1355 -4.99805 16.8784V0.119835C-4.99805 -0.137245 -4.78959 -0.345703 -4.53251 -0.345703H21.5364C21.7935 -0.345703 22.002 -0.137245 22.002 0.119835V16.8784C22.0019 17.1356 21.7934 17.344 21.5364 17.344Z" fill="#FF4B55"/>
<path d="M4.77778 -0.345703H-4.53251C-4.78959 -0.345703 -4.99805 -0.137297 -4.99805 0.119782V16.8784C-4.99805 17.1354 -4.78959 17.3439 -4.53251 17.3439H4.77783V-0.345703H4.77778Z" fill="#73AF00"/>
<path d="M4.7798 12.6865C7.09169 12.6865 8.96584 10.8124 8.96584 8.5005C8.96584 6.18861 7.09169 4.31445 4.7798 4.31445C2.46791 4.31445 0.59375 6.18861 0.59375 8.5005C0.59375 10.8124 2.46791 12.6865 4.7798 12.6865Z" fill="#FFE15A"/>
<path d="M6.17733 7.1029V8.96495C6.17733 9.73502 5.55084 10.3615 4.78076 10.3615C4.01069 10.3615 3.3842 9.73502 3.3842 8.96495V7.1029H6.17733ZM6.64281 6.17188H2.91866C2.66158 6.17188 2.45312 6.38033 2.45312 6.63741V8.965C2.45312 10.2504 3.49526 11.2926 4.78071 11.2926C6.06616 11.2926 7.1083 10.2504 7.1083 8.965V6.63741C7.10835 6.38033 6.89989 6.17188 6.64281 6.17188Z" fill="#FF4B55"/>
<path d="M6.17594 7.10352V8.96556C6.17594 9.73564 5.54945 10.3621 4.77937 10.3621C4.0093 10.3621 3.38281 9.73564 3.38281 8.96556V7.10352H6.17594Z" fill="#F5F5F5"/>
<path d="M2.91441 6.87179C3.04296 6.87179 3.14718 6.76757 3.14718 6.63902C3.14718 6.51046 3.04296 6.40625 2.91441 6.40625C2.78585 6.40625 2.68164 6.51046 2.68164 6.63902C2.68164 6.76757 2.78585 6.87179 2.91441 6.87179Z" fill="#FFE15A"/>
<path d="M6.63902 6.87179C6.76757 6.87179 6.87179 6.76757 6.87179 6.63902C6.87179 6.51046 6.76757 6.40625 6.63902 6.40625C6.51046 6.40625 6.40625 6.51046 6.40625 6.63902C6.40625 6.76757 6.51046 6.87179 6.63902 6.87179Z" fill="#FFE15A"/>
<path d="M2.91441 8.73312C3.04296 8.73312 3.14718 8.6289 3.14718 8.50035C3.14718 8.37179 3.04296 8.26758 2.91441 8.26758C2.78585 8.26758 2.68164 8.37179 2.68164 8.50035C2.68164 8.6289 2.78585 8.73312 2.91441 8.73312Z" fill="#FFE15A"/>
<path d="M6.63902 8.73312C6.76757 8.73312 6.87179 8.6289 6.87179 8.50035C6.87179 8.37179 6.76757 8.26758 6.63902 8.26758C6.51046 8.26758 6.40625 8.37179 6.40625 8.50035C6.40625 8.6289 6.51046 8.73312 6.63902 8.73312Z" fill="#FFE15A"/>
<path d="M4.77574 6.87179C4.90429 6.87179 5.00851 6.76757 5.00851 6.63902C5.00851 6.51046 4.90429 6.40625 4.77574 6.40625C4.64718 6.40625 4.54297 6.51046 4.54297 6.63902C4.54297 6.76757 4.64718 6.87179 4.77574 6.87179Z" fill="#FFE15A"/>
<path d="M6.17417 10.4499C6.30273 10.4499 6.40694 10.3457 6.40694 10.2171C6.40694 10.0886 6.30273 9.98438 6.17417 9.98438C6.04562 9.98438 5.94141 10.0886 5.94141 10.2171C5.94141 10.3457 6.04562 10.4499 6.17417 10.4499Z" fill="#FFE15A"/>
<path d="M3.4066 10.4499C3.53515 10.4499 3.63937 10.3457 3.63937 10.2171C3.63937 10.0886 3.53515 9.98438 3.4066 9.98438C3.27804 9.98438 3.17383 10.0886 3.17383 10.2171C3.17383 10.3457 3.27804 10.4499 3.4066 10.4499Z" fill="#FFE15A"/>
<path d="M5.0799 8.38281V8.7837C5.0799 8.94949 4.945 9.08439 4.77921 9.08439C4.61341 9.08439 4.47852 8.94949 4.47852 8.7837V8.38281H5.0799Z" fill="#41479B"/>
<path d="M5.0799 7.43164V7.83253C5.0799 7.99832 4.945 8.13322 4.77921 8.13322C4.61341 8.13322 4.47852 7.99832 4.47852 7.83253V7.43164H5.0799Z" fill="#41479B"/>
<path d="M5.0799 9.3418V9.74268C5.0799 9.90848 4.945 10.0434 4.77921 10.0434C4.61341 10.0434 4.47852 9.90848 4.47852 9.74268V9.3418H5.0799Z" fill="#41479B"/>
<path d="M5.88849 8.38281V8.7837C5.88849 8.94949 5.7536 9.08439 5.5878 9.08439C5.422 9.08439 5.28711 8.94949 5.28711 8.7837V8.38281H5.88849Z" fill="#41479B"/>
<path d="M4.26935 8.38281V8.7837C4.26935 8.94949 4.13446 9.08439 3.96866 9.08439C3.80286 9.08439 3.66797 8.94949 3.66797 8.7837V8.38281H4.26935Z" fill="#41479B"/>
</g>
</svg>
