<svg width="16" height="16" viewBox="0 0 16 16" fill="none" xmlns="http://www.w3.org/2000/svg">
<mask id="mask0_3896_39931" style="mask-type:luminance" maskUnits="userSpaceOnUse" x="0" y="0" width="16" height="16">
<rect width="16" height="16" fill="white"/>
</mask>
<g mask="url(#mask0_3896_39931)">
<path d="M20.5344 16.344H-5.53446C-5.79154 16.344 -6 16.1355 -6 15.8784V-0.880165C-6 -1.13724 -5.79154 -1.3457 -5.53446 -1.3457H20.5345C20.7915 -1.3457 21 -1.13724 21 -0.880165V15.8784C20.9999 16.1356 20.7915 16.344 20.5344 16.344Z" fill="#FF4B55"/>
<path d="M0.998857 7.49884C0.998857 9.55706 2.66695 11.2252 4.72332 11.2252C5.48971 11.2252 6.1964 10.9897 6.78502 10.5905C6.87419 10.5301 6.97718 10.6467 6.90257 10.7243C6.05808 11.6039 4.87546 12.1541 3.55958 12.1541C0.888273 12.1541 -1.25727 9.90215 -1.08394 7.19251C-0.932536 4.82685 1.02876 2.92736 3.3979 2.84652C4.7769 2.79942 6.02058 3.35677 6.89935 4.27039C6.97471 4.34876 6.87193 4.46704 6.78191 4.40608C6.19392 4.00783 5.48839 3.77253 4.72332 3.77253C2.667 3.77253 0.998857 5.44442 0.998857 7.49884Z" fill="#F5F5F5"/>
<path d="M9.48809 6.8584L8.75841 5.90385C8.71764 5.85049 8.63232 5.87975 8.63295 5.94694L8.6436 7.14838L7.51029 7.54737C7.4469 7.56967 7.44843 7.6598 7.5125 7.67999L8.65842 8.04117L8.68769 9.2423C8.68932 9.30943 8.7756 9.33585 8.81457 9.28117L9.51214 8.30295L10.6635 8.6463C10.7279 8.66549 10.7797 8.59172 10.7397 8.53772L10.0249 7.57194L10.7072 6.58302C10.7454 6.52775 10.6912 6.45572 10.6275 6.47702L9.48809 6.8584Z" fill="#F5F5F5"/>
</g>
</svg>
