<svg width="16" height="16" viewBox="0 0 16 16" fill="none" xmlns="http://www.w3.org/2000/svg">
<mask id="mask0_3896_39937" style="mask-type:luminance" maskUnits="userSpaceOnUse" x="0" y="0" width="16" height="16">
<rect width="16" height="16" fill="white"/>
</mask>
<g mask="url(#mask0_3896_39937)">
<path d="M-4.8283 17.2321L8.5 8.49986L-4.8283 -0.232422C-4.93087 -0.147045 -5 -0.0233305 -5 0.120529V16.8791C-5 17.0231 -4.93087 17.1468 -4.8283 17.2321Z" fill="#41479B"/>
<path d="M-4.83008 17.2323C-4.74939 17.2995 -4.64946 17.3448 -4.53629 17.3448H21.5327C21.7898 17.3448 21.9982 17.1364 21.9982 16.8793V8.5H8.49822L-4.83008 17.2323Z" fill="#FF4B55"/>
<path d="M-4.83008 -0.233168C-4.74939 -0.300351 -4.64946 -0.345703 -4.53629 -0.345703H21.5327C21.7898 -0.345703 21.9982 -0.137244 21.9982 0.119836V8.49912H8.49822L-4.83008 -0.233168Z" fill="#F5F5F5"/>
</g>
</svg>
