<svg width="16" height="16" viewBox="0 0 16 16" fill="none" xmlns="http://www.w3.org/2000/svg">
<mask id="mask0_3896_39925" style="mask-type:luminance" maskUnits="userSpaceOnUse" x="0" y="0" width="16" height="16">
<rect width="16" height="16" fill="white"/>
</mask>
<g mask="url(#mask0_3896_39925)">
<path d="M-5 11.4492H21.9999V16.8802C21.9999 17.1373 21.7915 17.3458 21.5344 17.3458H-4.53446C-4.79154 17.3458 -5 17.1373 -5 16.8802V11.4492Z" fill="#41479B"/>
<path d="M-4.53446 -0.345703H21.5345C21.7915 -0.345703 22 -0.137245 22 0.119835V5.55083H-5V0.119835C-5 -0.137245 -4.79154 -0.345703 -4.53446 -0.345703Z" fill="#FF4B55"/>
<path d="M21.9999 5.55078H-5V11.447H21.9999V5.55078Z" fill="#F5F5F5"/>
<path d="M6.54367 5.70703H5.24023V7.19678H6.54367V5.70703Z" fill="#FF4B55"/>
<path d="M9.15109 5.70703H7.84766V7.19678H9.15109V5.70703Z" fill="#FF4B55"/>
<path d="M7.8464 7.19727H6.54297V8.68701H7.8464V7.19727Z" fill="#FF4B55"/>
<path d="M11.7566 5.70703H10.4531V7.19678H11.7566V5.70703Z" fill="#FF4B55"/>
<path d="M10.4538 7.19727H9.15039V8.68701H10.4538V7.19727Z" fill="#FF4B55"/>
<path d="M7.8464 5.70703H6.54297V7.19678H7.8464V5.70703Z" fill="#F5F5F5"/>
<path d="M10.4538 5.70703H9.15039V7.19678H10.4538V5.70703Z" fill="#F5F5F5"/>
<path d="M6.54367 7.19727H5.24023V8.68701H6.54367V7.19727Z" fill="#F5F5F5"/>
<path d="M9.15109 7.19727H7.84766V8.68701H9.15109V7.19727Z" fill="#F5F5F5"/>
<path d="M11.7566 7.19727H10.4531V8.68701H11.7566V7.19727Z" fill="#F5F5F5"/>
<path d="M9.15109 8.6875H7.84766V10.1772H9.15109V8.6875Z" fill="#FF4B55"/>
<path d="M7.8464 10.1777H6.54297V11.6675H7.8464V10.1777Z" fill="#FF4B55"/>
<path d="M10.4538 10.1777H9.15039V11.6675H10.4538V10.1777Z" fill="#FF4B55"/>
<path d="M7.8464 8.6875H6.54297V10.1772H7.8464V8.6875Z" fill="#F5F5F5"/>
<path d="M10.4538 8.6875H9.15039V10.1772H10.4538V8.6875Z" fill="#F5F5F5"/>
<path d="M9.14914 10.1777H7.8457V11.6675H9.14914V10.1777Z" fill="#F5F5F5"/>
<path d="M11.7598 5.70738V9.89701C11.7598 11.6967 10.3008 13.1556 8.50114 13.1556C6.70148 13.1556 5.24253 11.6967 5.24253 9.89701V5.70738H11.7598ZM11.9925 5.47461H11.7598H5.24253H5.00977V5.70738V9.89701C5.00977 11.8221 6.57597 13.3884 8.50114 13.3884C10.4263 13.3884 11.9925 11.8222 11.9925 9.89701V5.70738V5.47461Z" fill="#FF4B55"/>
<path d="M6.54562 10.1752V8.68555H5.24219V9.8959C5.24219 9.99024 5.24841 10.0829 5.25627 10.1752H6.54562V10.1752Z" fill="#FF4B55"/>
<path d="M11.7444 10.1758H10.4551V11.6654H11.2342C11.5169 11.2294 11.698 10.7222 11.7444 10.1758Z" fill="#F5F5F5"/>
<path d="M5.76612 11.6654H6.54521V10.1758H5.25586C5.30232 10.7222 5.48341 11.2293 5.76612 11.6654Z" fill="#F5F5F5"/>
<path d="M10.4551 10.1772H11.7444C11.7523 10.085 11.7585 9.9922 11.7585 9.89786V8.6875H10.4551V10.1772Z" fill="#FF4B55"/>
<path d="M6.54472 12.4995V11.666H5.76562C5.9744 11.9881 6.23881 12.2693 6.54472 12.4995Z" fill="#FF4B55"/>
<path d="M11.2342 11.666H10.4551V12.4995C10.761 12.2693 11.0255 11.9881 11.2342 11.666Z" fill="#FF4B55"/>
<path d="M6.54688 12.4995C6.92625 12.7851 7.36779 12.9923 7.85031 13.0903V11.666H6.54688V12.4995Z" fill="#F5F5F5"/>
<path d="M9.1543 13.0903C9.63682 12.9923 10.0784 12.785 10.4577 12.4995V11.666H9.1543V13.0903Z" fill="#F5F5F5"/>
<path d="M9.15109 11.6641H7.84766V13.0883C8.05822 13.1311 8.27617 13.1538 8.4994 13.1538C8.72262 13.1538 8.94052 13.1311 9.15114 13.0883V11.6641H9.15109Z" fill="#FF4B55"/>
<path d="M6.14248 3.2403C5.85887 3.19642 5.56873 3.16478 5.27294 3.14648C5.04418 3.3348 4.82612 3.53113 4.61914 3.73447C4.82702 4.23624 5.03484 4.738 5.24262 5.23977C5.6599 5.06696 6.08747 4.92864 6.52127 4.82496C6.39502 4.29672 6.26877 3.76849 6.14248 3.2403Z" fill="#4173CD"/>
<path d="M9.29318 2.99347C9.03831 2.86453 8.77443 2.7453 8.50206 2.63672C8.22968 2.74535 7.96575 2.86458 7.71094 2.99347C7.75328 3.53484 7.79568 4.07631 7.83803 4.61784C8.28005 4.58319 8.72417 4.58319 9.16619 4.61784C9.20843 4.07636 9.25083 3.53494 9.29318 2.99347Z" fill="#4173CD"/>
<path d="M12.3826 3.73447C12.1756 3.53118 11.9575 3.33485 11.7288 3.14648C11.433 3.16473 11.1429 3.19642 10.8593 3.2403C10.733 3.76854 10.6067 4.29673 10.4805 4.82491C10.9143 4.92864 11.3418 5.06691 11.7591 5.23972C11.9669 4.73795 12.1748 4.23619 12.3826 3.73447Z" fill="#4173CD"/>
<path d="M7.7082 2.99481C7.43641 2.90711 7.15681 2.83038 6.87005 2.76562C6.61703 2.91544 6.37376 3.07454 6.14062 3.24197C6.26687 3.77021 6.39317 4.2984 6.51952 4.82659C6.95331 4.72286 7.39328 4.65378 7.83535 4.61918C7.79295 4.07771 7.75055 3.53628 7.7082 2.99481Z" fill="#41479B"/>
<path d="M10.8587 3.24197C10.6256 3.07454 10.3823 2.91539 10.1293 2.76562C9.84254 2.83038 9.56289 2.90722 9.29115 2.99481C9.24881 3.53618 9.20641 4.07765 9.16406 4.61918C9.60613 4.65372 10.0461 4.72286 10.4799 4.82659C10.6062 4.2984 10.7325 3.77016 10.8587 3.24197Z" fill="#41479B"/>
<path d="M7.76144 3.6432C7.26864 3.6817 6.77816 3.75874 6.29453 3.87444C6.26927 3.76882 6.24401 3.66314 6.21875 3.55751C6.71893 3.43801 7.22624 3.35828 7.73597 3.31836C7.74451 3.42668 7.753 3.53494 7.76144 3.6432Z" fill="#FF4B55"/>
<path d="M7.81306 4.29159C7.35411 4.3275 6.89728 4.39927 6.44687 4.50695C6.42156 4.40133 6.39635 4.29565 6.37109 4.19007C6.83806 4.07838 7.31177 4.00397 7.78764 3.9668C7.79613 4.07495 7.80457 4.18332 7.81306 4.29159Z" fill="#FF4B55"/>
<path d="M10.0471 4.40451C9.9335 4.38431 9.81954 4.36633 9.70532 4.35061C9.51748 4.32467 9.37757 4.1652 9.39387 3.98596C9.41011 3.80676 9.58967 3.67677 9.79412 3.70504C9.91673 3.72191 10.0391 3.74116 10.1611 3.76289C10.3646 3.79885 10.4963 3.97815 10.4566 4.15344C10.417 4.3291 10.2342 4.43747 10.0471 4.40451Z" fill="#FFE15A"/>
<path d="M11.8823 4.94097C11.4491 4.76152 11.005 4.61798 10.5547 4.51024C10.58 4.40461 10.6052 4.29893 10.6305 4.19336C11.0974 4.30495 11.5578 4.45387 12.007 4.63991C11.9654 4.74027 11.9239 4.84062 11.8823 4.94097Z" fill="#FF4B55"/>
<path d="M11.7685 3.9632C11.7225 4.09013 11.5673 4.15051 11.4206 4.10279C11.2739 4.05501 11.1841 3.91558 11.2213 3.78575C11.2584 3.65592 11.4156 3.5872 11.5712 3.63778C11.7269 3.68824 11.8146 3.83627 11.7685 3.9632Z" fill="#FFE15A"/>
<path d="M5.7822 3.78565C5.81927 3.91559 5.72946 4.05507 5.58291 4.10269C5.43626 4.15015 5.28101 4.08977 5.23492 3.9631C5.18883 3.83612 5.27658 3.68815 5.43225 3.63773C5.58777 3.58727 5.74518 3.65587 5.7822 3.78565Z" fill="#FFE15A"/>
<path d="M8.42668 3.57184C8.42699 3.67978 8.32996 3.76769 8.20973 3.77138C8.08955 3.77523 7.98709 3.69328 7.98076 3.58576C7.97448 3.47818 8.07141 3.38505 8.19755 3.38099C8.32369 3.37703 8.42615 3.46389 8.42668 3.57184Z" fill="#FFE15A"/>
<path d="M9.02209 3.58577C9.01571 3.69356 8.9132 3.77524 8.79312 3.77139C8.67294 3.7677 8.57591 3.67979 8.57617 3.57185C8.57665 3.464 8.67916 3.37689 8.80525 3.381C8.93144 3.3848 9.02831 3.47814 9.02209 3.58577Z" fill="#FFE15A"/>
<path d="M8.7138 4.07465C8.7108 4.1826 8.61624 4.2675 8.50244 4.2675C8.38875 4.26745 8.29419 4.18265 8.29108 4.07465C8.28813 3.96702 8.38268 3.87664 8.50244 3.87695C8.6222 3.87669 8.71675 3.96697 8.7138 4.07465Z" fill="#FFE15A"/>
</g>
</svg>
