<svg width="16" height="16" viewBox="0 0 16 16" fill="none" xmlns="http://www.w3.org/2000/svg">
<mask id="mask0_3896_40057" style="mask-type:luminance" maskUnits="userSpaceOnUse" x="0" y="0" width="16" height="16">
<rect width="16" height="16" fill="white"/>
</mask>
<g mask="url(#mask0_3896_40057)">
<path d="M22 5.55089H-5V0.119835C-5 -0.137245 -4.79154 -0.345703 -4.53446 -0.345703H21.5345C21.7915 -0.345703 22 -0.137245 22 0.119835L22 5.55089Z" fill="#F5F5F5"/>
<path d="M21.5344 17.3458H-4.53446C-4.79154 17.3458 -5 17.1373 -5 16.8802V11.4492H22V16.8802C22 17.1373 21.7915 17.3458 21.5344 17.3458Z" fill="#FF4B55"/>
<path d="M21.9999 5.55078H-5V11.447H21.9999V5.55078Z" fill="#41479B"/>
<path d="M4.07176 3.29826C4.07176 3.29826 3.978 6.2845 3.55898 7.12308C3.04028 8.15377 2.51879 8.45446 1.74291 8.73226C0.967139 8.45451 0.44565 8.15403 -0.0731496 7.12308C-0.492123 6.28444 -0.58599 3.29858 -0.585937 3.29826C0.894682 2.62975 2.59114 2.62975 4.07176 3.29826Z" fill="#41479B"/>
<path d="M2.41671 7.44134C2.35997 7.40496 2.31905 7.37891 2.22592 7.37891C2.13305 7.37891 2.09213 7.4049 2.03565 7.44134C1.97095 7.48253 1.89047 7.5341 1.74087 7.5341C1.59115 7.5341 1.51068 7.48253 1.44598 7.44113C1.3895 7.40501 1.34868 7.37901 1.25582 7.37901C1.16295 7.37901 1.12214 7.40501 1.06566 7.44113C1.00454 7.48031 0.927283 7.52698 0.792969 7.5322C1.07573 7.87698 1.37215 8.04056 1.74208 8.18258C2.11185 8.04051 2.40822 7.87709 2.69098 7.53231C2.55572 7.52741 2.47804 7.48042 2.41671 7.44134Z" fill="#F5F5F5"/>
<path d="M0.580877 6.88971C0.637355 6.92583 0.678066 6.95183 0.770615 6.95183C0.86348 6.95183 0.904296 6.92583 0.960775 6.88971C1.02548 6.84826 1.10595 6.79674 1.25556 6.79674C1.40517 6.79674 1.48564 6.84831 1.55034 6.8895C1.60682 6.92588 1.64774 6.95193 1.74061 6.95193C1.83347 6.95193 1.87429 6.92594 1.93077 6.88981C1.99547 6.84836 2.07595 6.79684 2.22566 6.79684C2.37548 6.79684 2.45611 6.84842 2.52081 6.8896C2.57755 6.92599 2.61832 6.95204 2.7115 6.95204C2.80468 6.95204 2.84555 6.92604 2.90229 6.8896C2.95634 6.85517 3.02421 6.8153 3.13169 6.80254C3.15985 6.72924 3.18722 6.64565 3.21269 6.54414L2.51818 5.38662L2.25941 5.90416L1.74187 4.86914L1.22434 5.90416L0.965573 5.38662L0.271484 6.54345C0.29685 6.64491 0.324166 6.72887 0.352379 6.80264C0.45943 6.81525 0.526982 6.85511 0.580877 6.88971Z" fill="#F5F5F5"/>
<path d="M3.00585 7.05462C2.94115 7.09581 2.86057 7.14738 2.7107 7.14738C2.56099 7.14738 2.48041 7.09581 2.41571 7.05462C2.35896 7.01824 2.31804 6.99219 2.22491 6.99219C2.13205 6.99219 2.09113 7.01819 2.03465 7.05462C1.96994 7.09581 1.88947 7.14738 1.73986 7.14738C1.59015 7.14738 1.50968 7.09581 1.44497 7.05441C1.38849 7.01829 1.34768 6.99229 1.25481 6.99229C1.16195 6.99229 1.12113 7.01829 1.06465 7.05441C0.999948 7.09586 0.919476 7.14738 0.769868 7.14738C0.620367 7.14738 0.54 7.09581 0.475506 7.05441C0.475189 7.05426 0.474926 7.05404 0.474609 7.05383C0.52534 7.14591 0.576017 7.23044 0.626537 7.30712C0.664294 7.32784 0.703792 7.34145 0.769868 7.34145C0.862734 7.34145 0.90355 7.31545 0.960028 7.27933C1.02473 7.23788 1.10521 7.18636 1.25481 7.18636C1.40442 7.18636 1.48489 7.23793 1.5496 7.27911C1.60608 7.3155 1.647 7.34155 1.73986 7.34155C1.83273 7.34155 1.87354 7.31555 1.93002 7.27943C1.99473 7.23798 2.0752 7.18646 2.22491 7.18646C2.37473 7.18646 2.45536 7.23803 2.52007 7.27922C2.57681 7.31561 2.61757 7.34166 2.71075 7.34166C2.77783 7.34166 2.81765 7.32784 2.85598 7.30669C2.90645 7.23012 2.95713 7.14559 3.00781 7.05362C3.00712 7.05389 3.00654 7.05426 3.00585 7.05462Z" fill="#F5F5F5"/>
<path d="M1.75162 3.9763L1.79703 4.1247L1.94822 4.08984C1.95845 4.08747 1.96562 4.09986 1.95845 4.10751L1.85266 4.22104L1.95845 4.33458C1.96562 4.34228 1.9585 4.35467 1.94822 4.35225L1.79703 4.31739L1.75162 4.46578C1.74857 4.47586 1.73427 4.47586 1.73122 4.46578L1.68581 4.31739L1.53462 4.35225C1.52439 4.35462 1.51722 4.34223 1.52439 4.33458L1.63018 4.22104L1.52439 4.10751C1.51722 4.09981 1.52434 4.08742 1.53462 4.08984L1.68581 4.1247L1.73122 3.9763C1.73433 3.96623 1.74857 3.96623 1.75162 3.9763Z" fill="#FFE15A"/>
<path d="M1.00748 3.26341L1.05289 3.41181L1.20408 3.37695C1.21431 3.37458 1.22148 3.38697 1.21431 3.39462L1.10852 3.50815L1.21431 3.62169C1.22148 3.62939 1.21436 3.64178 1.20408 3.63936L1.05289 3.6045L1.00748 3.75289C1.00442 3.76297 0.990134 3.76297 0.987075 3.75289L0.941671 3.6045L0.790482 3.63936C0.780251 3.64173 0.773079 3.62934 0.780251 3.62169L0.886036 3.50815L0.780251 3.39462C0.773079 3.38692 0.780199 3.37452 0.790482 3.37695L0.941671 3.41181L0.987075 3.26341C0.990134 3.25334 1.00437 3.25334 1.00748 3.26341Z" fill="#FFE15A"/>
<path d="M2.49967 3.26341L2.54508 3.41181L2.69627 3.37695C2.7065 3.37458 2.71367 3.38697 2.7065 3.39462L2.60071 3.50815L2.7065 3.62169C2.71367 3.62939 2.70655 3.64178 2.69627 3.63936L2.54508 3.6045L2.49967 3.75289C2.49661 3.76297 2.48232 3.76297 2.47926 3.75289L2.43386 3.6045L2.28267 3.63936C2.27244 3.64173 2.26527 3.62934 2.27244 3.62169L2.37822 3.50815L2.27244 3.39462C2.26527 3.38692 2.27239 3.37452 2.28267 3.37695L2.43386 3.41181L2.47926 3.26341C2.48237 3.25334 2.49661 3.25334 2.49967 3.26341Z" fill="#FFE15A"/>
<path d="M3.80298 3.18555C3.80456 3.26808 3.80588 3.35134 3.80588 3.44126C3.76854 4.37486 3.62964 6.40798 3.32695 7.02033C2.88066 7.9166 2.46859 8.21286 1.74202 8.48587C1.01544 8.21292 0.603431 7.91671 0.157458 7.02102C-0.146345 6.40635 -0.286249 4.33864 -0.32195 3.44131C-0.32195 3.35129 -0.320473 3.26897 -0.319208 3.18576C-0.40875 3.22083 -0.497766 3.2579 -0.585938 3.29771C-0.579715 3.47901 -0.534574 4.66838 -0.398995 5.71416C-0.32253 6.29798 -0.217272 6.83602 -0.0739931 7.12285C0.444754 8.1538 0.966243 8.45428 1.74207 8.73203C2.51795 8.45418 3.03939 8.15359 3.55819 7.12285C3.70152 6.83602 3.80672 6.29798 3.88324 5.71416C4.01877 4.66838 4.06386 3.47901 4.07013 3.29771C3.9818 3.25779 3.89273 3.22062 3.80298 3.18555Z" fill="#FF1722"/>
</g>
</svg>
